<mxfile host="Electron" modified="2024-03-01T18:46:41.094Z" agent="Mozilla/5.0 (Windows NT 10.0; Win64; x64) AppleWebKit/537.36 (KHTML, like Gecko) draw.io/23.1.5 Chrome/120.0.6099.109 Electron/28.1.0 Safari/537.36" etag="7LzUP_xjTZfBnp7jdgE0" version="23.1.5" type="device">
  <diagram name="Page-1" id="Oeq8SWsNVjqwi2Z7oFJg">
    <mxGraphModel dx="5924" dy="-4716" grid="1" gridSize="10" guides="1" tooltips="1" connect="1" arrows="1" fold="1" page="0" pageScale="1" pageWidth="827" pageHeight="1169" math="0" shadow="0">
      <root>
        <mxCell id="0" />
        <mxCell id="1" parent="0" />
        <mxCell id="YFC7cwVPjjb7xRcuS-bk-5" value="&lt;font style=&quot;font-size: 30px;&quot;&gt;Data&lt;/font&gt;" style="swimlane;whiteSpace=wrap;html=1;startSize=50;align=center;fontSize=10;" parent="1" vertex="1">
          <mxGeometry x="470" y="7510" width="1250" height="1060" as="geometry" />
        </mxCell>
        <mxCell id="YFC7cwVPjjb7xRcuS-bk-7" value="&lt;font style=&quot;font-size: 20px;&quot;&gt;Tameplate&lt;/font&gt;" style="swimlane;whiteSpace=wrap;html=1;startSize=30;" parent="YFC7cwVPjjb7xRcuS-bk-5" vertex="1">
          <mxGeometry x="480" y="432" width="220" height="180" as="geometry" />
        </mxCell>
        <mxCell id="YFC7cwVPjjb7xRcuS-bk-16" value="Popisuje ake atributy obsahuje graf" style="text;html=1;align=left;verticalAlign=middle;resizable=0;points=[];autosize=1;strokeColor=none;fillColor=none;fontSize=10;" parent="YFC7cwVPjjb7xRcuS-bk-7" vertex="1">
          <mxGeometry y="30" width="190" height="30" as="geometry" />
        </mxCell>
        <mxCell id="yP9o1ustINh5DsTf5xkj-110" value="&lt;font style=&quot;font-size: 10px;&quot;&gt;Moze obsahovat&amp;nbsp; kategoricke alebo&amp;nbsp; &lt;br&gt;ciselne atributy&lt;/font&gt;" style="text;html=1;align=left;verticalAlign=middle;resizable=0;points=[];autosize=1;strokeColor=none;fillColor=none;" vertex="1" parent="YFC7cwVPjjb7xRcuS-bk-7">
          <mxGeometry y="51" width="180" height="40" as="geometry" />
        </mxCell>
        <mxCell id="YFC7cwVPjjb7xRcuS-bk-14" style="edgeStyle=orthogonalEdgeStyle;rounded=0;orthogonalLoop=1;jettySize=auto;html=1;exitX=1;exitY=0.75;exitDx=0;exitDy=0;entryX=0.25;entryY=0;entryDx=0;entryDy=0;" parent="YFC7cwVPjjb7xRcuS-bk-5" source="YFC7cwVPjjb7xRcuS-bk-8" target="YFC7cwVPjjb7xRcuS-bk-7" edge="1">
          <mxGeometry relative="1" as="geometry">
            <mxPoint x="796" y="348" as="targetPoint" />
          </mxGeometry>
        </mxCell>
        <mxCell id="YFC7cwVPjjb7xRcuS-bk-8" value="&lt;div&gt;Algorithm&lt;/div&gt;" style="swimlane;whiteSpace=wrap;html=1;startSize=30;" parent="YFC7cwVPjjb7xRcuS-bk-5" vertex="1">
          <mxGeometry x="216" y="143" width="235" height="200" as="geometry" />
        </mxCell>
        <mxCell id="YFC7cwVPjjb7xRcuS-bk-25" value="&lt;div style=&quot;font-size: 10px;&quot;&gt;Algoritmus pocita s nejakym modelovym&amp;nbsp;&lt;/div&gt;&lt;div align=&quot;left&quot; style=&quot;font-size: 10px;&quot;&gt;templatom a pri jeho parametroch hlada&lt;/div&gt;&lt;div align=&quot;left&quot; style=&quot;font-size: 10px;&quot;&gt;cestu v grafu&lt;br&gt;&lt;/div&gt;" style="text;html=1;align=center;verticalAlign=middle;resizable=0;points=[];autosize=1;strokeColor=none;fillColor=none;fontSize=10;" parent="YFC7cwVPjjb7xRcuS-bk-8" vertex="1">
          <mxGeometry x="5" y="25" width="200" height="50" as="geometry" />
        </mxCell>
        <mxCell id="YFC7cwVPjjb7xRcuS-bk-12" style="edgeStyle=orthogonalEdgeStyle;rounded=0;orthogonalLoop=1;jettySize=auto;html=1;entryX=0.5;entryY=0;entryDx=0;entryDy=0;exitX=0.75;exitY=1;exitDx=0;exitDy=0;" parent="YFC7cwVPjjb7xRcuS-bk-5" source="YFC7cwVPjjb7xRcuS-bk-9" target="YFC7cwVPjjb7xRcuS-bk-7" edge="1">
          <mxGeometry relative="1" as="geometry">
            <mxPoint x="806" y="288" as="sourcePoint" />
          </mxGeometry>
        </mxCell>
        <mxCell id="YFC7cwVPjjb7xRcuS-bk-9" value="&lt;div&gt;Map format&lt;/div&gt;" style="swimlane;whiteSpace=wrap;html=1;startSize=30;" parent="YFC7cwVPjjb7xRcuS-bk-5" vertex="1">
          <mxGeometry x="736" y="138" width="270" height="198" as="geometry" />
        </mxCell>
        <mxCell id="YFC7cwVPjjb7xRcuS-bk-26" value="&lt;div style=&quot;font-size: 10px;&quot;&gt;&lt;font style=&quot;font-size: 10px;&quot;&gt;Kazdy mapovy format je na graf s danym&amp;nbsp;&lt;/font&gt;&lt;span style=&quot;background-color: initial;&quot;&gt;template-om&lt;/span&gt;&lt;/div&gt;" style="text;html=1;align=left;verticalAlign=middle;resizable=0;points=[];autosize=1;strokeColor=none;fillColor=none;fontSize=10;" parent="YFC7cwVPjjb7xRcuS-bk-9" vertex="1">
          <mxGeometry y="35" width="260" height="30" as="geometry" />
        </mxCell>
        <mxCell id="YFC7cwVPjjb7xRcuS-bk-27" value="&lt;div style=&quot;font-size: 11px;&quot; align=&quot;left&quot;&gt;&lt;font style=&quot;font-size: 10px;&quot;&gt;Moze byt aj do viacerych&lt;/font&gt;&lt;/div&gt;" style="text;html=1;align=left;verticalAlign=middle;resizable=0;points=[];autosize=1;strokeColor=none;fillColor=none;" parent="YFC7cwVPjjb7xRcuS-bk-9" vertex="1">
          <mxGeometry y="60" width="140" height="30" as="geometry" />
        </mxCell>
        <mxCell id="YFC7cwVPjjb7xRcuS-bk-28" value="&lt;div style=&quot;font-size: 10px;&quot;&gt;Parser daneho formatu teda parsuje&lt;/div&gt;&lt;div style=&quot;font-size: 10px;&quot;&gt;&amp;nbsp;na graf s konkretnym modelovym templat-om&lt;/div&gt;" style="text;html=1;align=left;verticalAlign=middle;resizable=0;points=[];autosize=1;strokeColor=none;fillColor=none;fontSize=10;" parent="YFC7cwVPjjb7xRcuS-bk-9" vertex="1">
          <mxGeometry y="80" width="230" height="40" as="geometry" />
        </mxCell>
        <mxCell id="YFC7cwVPjjb7xRcuS-bk-13" style="edgeStyle=orthogonalEdgeStyle;rounded=0;orthogonalLoop=1;jettySize=auto;html=1;exitX=0.25;exitY=0;exitDx=0;exitDy=0;entryX=1;entryY=0.75;entryDx=0;entryDy=0;" parent="YFC7cwVPjjb7xRcuS-bk-5" source="YFC7cwVPjjb7xRcuS-bk-10" target="YFC7cwVPjjb7xRcuS-bk-7" edge="1">
          <mxGeometry relative="1" as="geometry">
            <Array as="points">
              <mxPoint x="950" y="567" />
            </Array>
          </mxGeometry>
        </mxCell>
        <mxCell id="YFC7cwVPjjb7xRcuS-bk-10" value="&lt;div&gt;Models&lt;/div&gt;" style="swimlane;whiteSpace=wrap;html=1;startSize=30;" parent="YFC7cwVPjjb7xRcuS-bk-5" vertex="1">
          <mxGeometry x="890" y="582" width="270" height="168" as="geometry" />
        </mxCell>
        <mxCell id="YFC7cwVPjjb7xRcuS-bk-24" value="&lt;div align=&quot;left&quot;&gt;&lt;font style=&quot;font-size: 10px;&quot;&gt;Modely sa vyrabaju pre dany tameplate&lt;/font&gt;&lt;/div&gt;" style="text;html=1;align=left;verticalAlign=middle;resizable=0;points=[];autosize=1;strokeColor=none;fillColor=none;" parent="YFC7cwVPjjb7xRcuS-bk-10" vertex="1">
          <mxGeometry y="35" width="200" height="30" as="geometry" />
        </mxCell>
        <mxCell id="YFC7cwVPjjb7xRcuS-bk-33" value="&lt;div align=&quot;left&quot; style=&quot;font-size: 10px;&quot;&gt;&lt;font style=&quot;font-size: 10px;&quot;&gt;Nasledne uzivatel vyraba instancie daneho&lt;/font&gt;&lt;/div&gt;&lt;div align=&quot;left&quot; style=&quot;font-size: 10px;&quot;&gt;&lt;font style=&quot;font-size: 10px;&quot;&gt;&amp;nbsp;modelu cez gui a moze si dane instancie&amp;nbsp;&lt;/font&gt;&lt;/div&gt;&lt;div align=&quot;left&quot; style=&quot;font-size: 10px;&quot;&gt;&lt;font style=&quot;font-size: 10px;&quot;&gt;pre dany model ulozit&lt;br style=&quot;font-size: 10px;&quot;&gt;&lt;/font&gt;&lt;/div&gt;" style="text;html=1;align=left;verticalAlign=middle;resizable=0;points=[];autosize=1;strokeColor=none;fillColor=none;fontSize=10;" parent="YFC7cwVPjjb7xRcuS-bk-10" vertex="1">
          <mxGeometry y="70" width="220" height="50" as="geometry" />
        </mxCell>
        <mxCell id="YFC7cwVPjjb7xRcuS-bk-37" value="&lt;div style=&quot;font-size: 11px;&quot;&gt;&lt;font style=&quot;font-size: 10px;&quot;&gt;Moze vyuzivat relevance-feeback mechanizmu&lt;/font&gt;&lt;/div&gt;" style="text;html=1;align=left;verticalAlign=middle;resizable=0;points=[];autosize=1;strokeColor=none;fillColor=none;" parent="YFC7cwVPjjb7xRcuS-bk-10" vertex="1">
          <mxGeometry y="128" width="240" height="30" as="geometry" />
        </mxCell>
        <mxCell id="YFC7cwVPjjb7xRcuS-bk-35" style="edgeStyle=orthogonalEdgeStyle;rounded=0;orthogonalLoop=1;jettySize=auto;html=1;entryX=1;entryY=0.75;entryDx=0;entryDy=0;endArrow=none;endFill=0;startArrow=classicThin;startFill=1;dashed=1;dashPattern=8 8;exitX=0;exitY=0.5;exitDx=0;exitDy=0;" parent="YFC7cwVPjjb7xRcuS-bk-5" source="YFC7cwVPjjb7xRcuS-bk-11" target="YFC7cwVPjjb7xRcuS-bk-18" edge="1">
          <mxGeometry relative="1" as="geometry">
            <mxPoint x="520" y="860" as="sourcePoint" />
          </mxGeometry>
        </mxCell>
        <mxCell id="YFC7cwVPjjb7xRcuS-bk-11" value="&lt;div&gt;Elevation&lt;/div&gt;" style="swimlane;whiteSpace=wrap;html=1;startSize=32;" parent="YFC7cwVPjjb7xRcuS-bk-5" vertex="1">
          <mxGeometry x="540" y="705" width="200" height="210" as="geometry" />
        </mxCell>
        <mxCell id="YFC7cwVPjjb7xRcuS-bk-31" value="&lt;div align=&quot;left&quot; style=&quot;font-size: 10px;&quot;&gt;&lt;font style=&quot;font-size: 10px;&quot;&gt;Vyskove data z externej databaze&lt;/font&gt;&lt;/div&gt;" style="text;html=1;align=left;verticalAlign=middle;resizable=0;points=[];autosize=1;strokeColor=none;fillColor=none;fontSize=10;" parent="YFC7cwVPjjb7xRcuS-bk-11" vertex="1">
          <mxGeometry y="32" width="180" height="30" as="geometry" />
        </mxCell>
        <mxCell id="YFC7cwVPjjb7xRcuS-bk-32" value="&lt;div&gt;Maju normalizovany format pri&amp;nbsp;&lt;/div&gt;&lt;div&gt;akomkolvek zdroji, cize pri parsovani&amp;nbsp;&lt;/div&gt;&lt;div&gt;musi byt parsovane tak, aby&lt;/div&gt;&lt;div&gt;splnovali nejaky elevation interface&lt;/div&gt;&lt;div&gt;&lt;br&gt;&lt;/div&gt;" style="text;html=1;align=left;verticalAlign=middle;resizable=0;points=[];autosize=1;strokeColor=none;fillColor=none;fontSize=10;" parent="YFC7cwVPjjb7xRcuS-bk-11" vertex="1">
          <mxGeometry y="52" width="200" height="70" as="geometry" />
        </mxCell>
        <mxCell id="yP9o1ustINh5DsTf5xkj-2" style="edgeStyle=orthogonalEdgeStyle;rounded=0;orthogonalLoop=1;jettySize=auto;html=1;exitX=0.75;exitY=0;exitDx=0;exitDy=0;entryX=0;entryY=0.5;entryDx=0;entryDy=0;" edge="1" parent="YFC7cwVPjjb7xRcuS-bk-5" source="YFC7cwVPjjb7xRcuS-bk-18" target="YFC7cwVPjjb7xRcuS-bk-7">
          <mxGeometry relative="1" as="geometry">
            <mxPoint x="476" y="558" as="targetPoint" />
          </mxGeometry>
        </mxCell>
        <mxCell id="yP9o1ustINh5DsTf5xkj-3" style="edgeStyle=orthogonalEdgeStyle;rounded=0;orthogonalLoop=1;jettySize=auto;html=1;exitX=0.25;exitY=0;exitDx=0;exitDy=0;entryX=0.25;entryY=1;entryDx=0;entryDy=0;" edge="1" parent="YFC7cwVPjjb7xRcuS-bk-5" source="YFC7cwVPjjb7xRcuS-bk-18" target="YFC7cwVPjjb7xRcuS-bk-9">
          <mxGeometry relative="1" as="geometry">
            <mxPoint x="666" y="318" as="targetPoint" />
            <Array as="points">
              <mxPoint x="274" y="368" />
              <mxPoint x="801" y="368" />
            </Array>
          </mxGeometry>
        </mxCell>
        <mxCell id="YFC7cwVPjjb7xRcuS-bk-18" value="&lt;div&gt;Graph representation&lt;/div&gt;" style="swimlane;whiteSpace=wrap;html=1;startSize=30;" parent="YFC7cwVPjjb7xRcuS-bk-5" vertex="1">
          <mxGeometry x="170" y="628" width="310" height="222" as="geometry" />
        </mxCell>
        <mxCell id="YFC7cwVPjjb7xRcuS-bk-29" value="&lt;div align=&quot;left&quot; style=&quot;font-size: 10px;&quot;&gt;&lt;font style=&quot;font-size: 10px;&quot;&gt;Kazdy graf bude mat vo vrcholoch a&amp;nbsp;&lt;/font&gt;&lt;/div&gt;&lt;div align=&quot;left&quot; style=&quot;font-size: 10px;&quot;&gt;&lt;font style=&quot;font-size: 10px;&quot;&gt;potazmo na hranach aributy definovane&amp;nbsp;&lt;/font&gt;&lt;/div&gt;&lt;div align=&quot;left&quot; style=&quot;font-size: 10px;&quot;&gt;&lt;font style=&quot;font-size: 10px;&quot;&gt;v konkretnom modelovom template&amp;nbsp;&lt;/font&gt;&lt;/div&gt;&lt;div align=&quot;left&quot; style=&quot;font-size: 10px;&quot;&gt;&lt;font style=&quot;font-size: 10px;&quot;&gt;(teda kazdy vrchol si ponesie nejaky objekt&amp;nbsp;&lt;/font&gt;&lt;/div&gt;&lt;div align=&quot;left&quot; style=&quot;font-size: 10px;&quot;&gt;&lt;font style=&quot;font-size: 10px;&quot;&gt;nejkeho template-u)&lt;br style=&quot;font-size: 10px;&quot;&gt;&lt;/font&gt;&lt;/div&gt;" style="text;html=1;align=left;verticalAlign=middle;resizable=0;points=[];autosize=1;strokeColor=none;fillColor=none;fontSize=10;" parent="YFC7cwVPjjb7xRcuS-bk-18" vertex="1">
          <mxGeometry x="0.25" y="42" width="220" height="70" as="geometry" />
        </mxCell>
        <mxCell id="YFC7cwVPjjb7xRcuS-bk-36" value="&lt;div align=&quot;left&quot; style=&quot;font-size: 10px;&quot;&gt;&lt;font style=&quot;font-size: 10px;&quot;&gt;Moze generator grafu moze vyuzivat vyskove data&amp;nbsp;&lt;/font&gt;&lt;/div&gt;&lt;div align=&quot;left&quot; style=&quot;font-size: 10px;&quot;&gt;&lt;font style=&quot;font-size: 10px;&quot;&gt;externych databaz&amp;nbsp;&lt;/font&gt;&lt;span style=&quot;font-size: 10px; background-color: initial;&quot;&gt;pre vypocet vyskovych parametrov&amp;nbsp;&lt;/span&gt;&lt;/div&gt;&lt;div align=&quot;left&quot; style=&quot;font-size: 10px;&quot;&gt;&lt;span style=&quot;font-size: 10px; background-color: initial;&quot;&gt;daneho&amp;nbsp;&lt;/span&gt;&lt;span style=&quot;font-size: 10px; background-color: initial;&quot;&gt;modeloveho template-u&lt;/span&gt;&lt;/div&gt;" style="text;html=1;align=left;verticalAlign=middle;resizable=0;points=[];autosize=1;strokeColor=none;fillColor=none;fontSize=10;" parent="YFC7cwVPjjb7xRcuS-bk-18" vertex="1">
          <mxGeometry x="0.25" y="156" width="260" height="50" as="geometry" />
        </mxCell>
        <mxCell id="yP9o1ustINh5DsTf5xkj-108" value="Pre vytvorenie grafu potregujeme mat konvertor z daneho&lt;br&gt;mapoveho formatu&amp;nbsp;" style="text;html=1;align=left;verticalAlign=middle;resizable=0;points=[];autosize=1;strokeColor=none;fillColor=none;fontSize=10;" vertex="1" parent="YFC7cwVPjjb7xRcuS-bk-18">
          <mxGeometry x="0.25" y="116" width="280" height="40" as="geometry" />
        </mxCell>
        <mxCell id="yP9o1ustINh5DsTf5xkj-106" style="edgeStyle=orthogonalEdgeStyle;rounded=0;orthogonalLoop=1;jettySize=auto;html=1;exitX=1;exitY=0.75;exitDx=0;exitDy=0;" edge="1" parent="YFC7cwVPjjb7xRcuS-bk-5">
          <mxGeometry relative="1" as="geometry">
            <mxPoint x="690" y="111" as="targetPoint" />
            <mxPoint x="510" y="110" as="sourcePoint" />
          </mxGeometry>
        </mxCell>
        <mxCell id="yP9o1ustINh5DsTf5xkj-107" value="Zavislost" style="edgeLabel;html=1;align=center;verticalAlign=middle;resizable=0;points=[];" vertex="1" connectable="0" parent="yP9o1ustINh5DsTf5xkj-106">
          <mxGeometry x="-0.1535" y="3" relative="1" as="geometry">
            <mxPoint x="3" y="-7" as="offset" />
          </mxGeometry>
        </mxCell>
        <mxCell id="yP9o1ustINh5DsTf5xkj-115" value="&lt;font style=&quot;font-size: 50px;&quot;&gt;&lt;font color=&quot;#cc0000&quot;&gt;ViewModel&lt;/font&gt;&lt;br&gt;&lt;/font&gt;" style="swimlane;whiteSpace=wrap;html=1;startSize=80;" vertex="1" parent="1">
          <mxGeometry x="-4640" y="8880" width="6920" height="3300" as="geometry" />
        </mxCell>
        <mxCell id="yP9o1ustINh5DsTf5xkj-116" value="&lt;font style=&quot;&quot;&gt;&lt;span style=&quot;font-size: 40px;&quot;&gt;Path finding session controler&lt;/span&gt;&lt;br&gt;&lt;/font&gt;" style="swimlane;whiteSpace=wrap;html=1;startSize=60;" vertex="1" parent="yP9o1ustINh5DsTf5xkj-115">
          <mxGeometry x="170" y="840" width="3970" height="360" as="geometry" />
        </mxCell>
        <mxCell id="yP9o1ustINh5DsTf5xkj-117" value="Graph, Model" style="edgeStyle=orthogonalEdgeStyle;rounded=0;orthogonalLoop=1;jettySize=auto;html=1;exitX=1;exitY=0.5;exitDx=0;exitDy=0;entryX=0;entryY=0.5;entryDx=0;entryDy=0;dashed=1;curved=1;" edge="1" parent="yP9o1ustINh5DsTf5xkj-116" source="yP9o1ustINh5DsTf5xkj-118" target="yP9o1ustINh5DsTf5xkj-121">
          <mxGeometry x="0.86" y="11" relative="1" as="geometry">
            <mxPoint x="1" as="offset" />
          </mxGeometry>
        </mxCell>
        <mxCell id="yP9o1ustINh5DsTf5xkj-118" value="&lt;font style=&quot;&quot;&gt;&lt;font style=&quot;font-size: 25px;&quot;&gt;Graph creating&lt;/font&gt;&lt;br&gt;&lt;/font&gt;" style="swimlane;whiteSpace=wrap;html=1;startSize=40;" vertex="1" parent="yP9o1ustINh5DsTf5xkj-116">
          <mxGeometry x="1250" y="111.25" width="330" height="178.75" as="geometry" />
        </mxCell>
        <mxCell id="yP9o1ustINh5DsTf5xkj-119" style="edgeStyle=orthogonalEdgeStyle;rounded=0;orthogonalLoop=1;jettySize=auto;html=1;exitX=1;exitY=0.5;exitDx=0;exitDy=0;entryX=0;entryY=0.5;entryDx=0;entryDy=0;dashed=1;curved=1;" edge="1" parent="yP9o1ustINh5DsTf5xkj-116" source="yP9o1ustINh5DsTf5xkj-121" target="yP9o1ustINh5DsTf5xkj-122">
          <mxGeometry relative="1" as="geometry" />
        </mxCell>
        <mxCell id="yP9o1ustINh5DsTf5xkj-120" value="Graph" style="edgeLabel;html=1;align=center;verticalAlign=middle;resizable=0;points=[];" vertex="1" connectable="0" parent="yP9o1ustINh5DsTf5xkj-119">
          <mxGeometry x="0.8435" y="3" relative="1" as="geometry">
            <mxPoint y="-6" as="offset" />
          </mxGeometry>
        </mxCell>
        <mxCell id="yP9o1ustINh5DsTf5xkj-121" value="&lt;font style=&quot;&quot;&gt;&lt;font style=&quot;font-size: 25px;&quot;&gt;relevance feedback mechanism&lt;/font&gt;&lt;br&gt;&lt;/font&gt;" style="swimlane;whiteSpace=wrap;html=1;startSize=40;" vertex="1" parent="yP9o1ustINh5DsTf5xkj-116">
          <mxGeometry x="2430" y="111.25" width="432.5" height="178.75" as="geometry" />
        </mxCell>
        <mxCell id="yP9o1ustINh5DsTf5xkj-122" value="&lt;font style=&quot;&quot;&gt;&lt;font style=&quot;font-size: 25px;&quot;&gt;path finding&lt;/font&gt;&lt;br&gt;&lt;/font&gt;" style="swimlane;whiteSpace=wrap;html=1;startSize=40;" vertex="1" parent="yP9o1ustINh5DsTf5xkj-116">
          <mxGeometry x="3500" y="108.75" width="350" height="181.25" as="geometry" />
        </mxCell>
        <mxCell id="yP9o1ustINh5DsTf5xkj-123" value="Map, Tameplate, Model" style="edgeStyle=orthogonalEdgeStyle;rounded=0;orthogonalLoop=1;jettySize=auto;html=1;exitX=1;exitY=0.5;exitDx=0;exitDy=0;entryX=0;entryY=0.5;entryDx=0;entryDy=0;dashed=1;curved=1;" edge="1" parent="yP9o1ustINh5DsTf5xkj-116" source="yP9o1ustINh5DsTf5xkj-124" target="yP9o1ustINh5DsTf5xkj-118">
          <mxGeometry x="0.7714" y="11" relative="1" as="geometry">
            <mxPoint as="offset" />
          </mxGeometry>
        </mxCell>
        <mxCell id="yP9o1ustINh5DsTf5xkj-124" value="&lt;font style=&quot;&quot;&gt;&lt;font style=&quot;font-size: 26px;&quot;&gt;Parameters setting&lt;/font&gt;&lt;br&gt;&lt;/font&gt;" style="swimlane;whiteSpace=wrap;html=1;startSize=40;" vertex="1" parent="yP9o1ustINh5DsTf5xkj-116">
          <mxGeometry x="90" y="111.25" width="310" height="178.75" as="geometry" />
        </mxCell>
        <mxCell id="yP9o1ustINh5DsTf5xkj-125" value="&lt;font style=&quot;&quot;&gt;&lt;font style=&quot;font-size: 40px;&quot;&gt;User model instance creating session controler&lt;/font&gt;&lt;br&gt;&lt;/font&gt;" style="swimlane;whiteSpace=wrap;html=1;startSize=60;" vertex="1" parent="yP9o1ustINh5DsTf5xkj-115">
          <mxGeometry x="160" y="2430" width="4000" height="310" as="geometry" />
        </mxCell>
        <mxCell id="yP9o1ustINh5DsTf5xkj-126" style="edgeStyle=orthogonalEdgeStyle;rounded=0;orthogonalLoop=1;jettySize=auto;html=1;exitX=1;exitY=0.5;exitDx=0;exitDy=0;entryX=0;entryY=0.5;entryDx=0;entryDy=0;startArrow=none;startFill=0;dashed=1;curved=1;" edge="1" parent="yP9o1ustINh5DsTf5xkj-125" source="yP9o1ustINh5DsTf5xkj-133" target="yP9o1ustINh5DsTf5xkj-131">
          <mxGeometry relative="1" as="geometry" />
        </mxCell>
        <mxCell id="yP9o1ustINh5DsTf5xkj-127" value="Graph, Model" style="edgeLabel;html=1;align=center;verticalAlign=middle;resizable=0;points=[];" vertex="1" connectable="0" parent="yP9o1ustINh5DsTf5xkj-126">
          <mxGeometry x="0.9137" y="-2" relative="1" as="geometry">
            <mxPoint x="-12" y="-12" as="offset" />
          </mxGeometry>
        </mxCell>
        <mxCell id="yP9o1ustINh5DsTf5xkj-128" value="&lt;font style=&quot;&quot;&gt;&lt;font style=&quot;font-size: 25px;&quot;&gt;Parameters setting&lt;/font&gt;&lt;br&gt;&lt;/font&gt;" style="swimlane;whiteSpace=wrap;html=1;startSize=40;" vertex="1" parent="yP9o1ustINh5DsTf5xkj-125">
          <mxGeometry x="90" y="100" width="330" height="160" as="geometry" />
        </mxCell>
        <mxCell id="yP9o1ustINh5DsTf5xkj-129" style="edgeStyle=orthogonalEdgeStyle;rounded=0;orthogonalLoop=1;jettySize=auto;html=1;exitX=1;exitY=0.5;exitDx=0;exitDy=0;entryX=0;entryY=0.5;entryDx=0;entryDy=0;dashed=1;startArrow=classic;startFill=1;curved=1;" edge="1" parent="yP9o1ustINh5DsTf5xkj-125" source="yP9o1ustINh5DsTf5xkj-131" target="yP9o1ustINh5DsTf5xkj-132">
          <mxGeometry relative="1" as="geometry" />
        </mxCell>
        <mxCell id="yP9o1ustINh5DsTf5xkj-130" value="Graph" style="edgeLabel;html=1;align=center;verticalAlign=middle;resizable=0;points=[];" vertex="1" connectable="0" parent="yP9o1ustINh5DsTf5xkj-129">
          <mxGeometry x="0.8304" y="6" relative="1" as="geometry">
            <mxPoint x="8" y="-4" as="offset" />
          </mxGeometry>
        </mxCell>
        <mxCell id="yP9o1ustINh5DsTf5xkj-285" value="Path" style="edgeLabel;html=1;align=center;verticalAlign=middle;resizable=0;points=[];" vertex="1" connectable="0" parent="yP9o1ustINh5DsTf5xkj-129">
          <mxGeometry x="-0.8867" y="1" relative="1" as="geometry">
            <mxPoint x="-8" y="11" as="offset" />
          </mxGeometry>
        </mxCell>
        <mxCell id="yP9o1ustINh5DsTf5xkj-131" value="&lt;font style=&quot;&quot;&gt;&lt;span style=&quot;font-size: 25px;&quot;&gt;User model instance atributes setting&lt;/span&gt;&lt;br&gt;&lt;/font&gt;" style="swimlane;whiteSpace=wrap;html=1;startSize=50;" vertex="1" parent="yP9o1ustINh5DsTf5xkj-125">
          <mxGeometry x="2320" y="100" width="500" height="160" as="geometry" />
        </mxCell>
        <mxCell id="yP9o1ustINh5DsTf5xkj-132" value="&lt;font style=&quot;&quot;&gt;&lt;font style=&quot;font-size: 25px;&quot;&gt;Path finding&lt;/font&gt;&lt;br&gt;&lt;/font&gt;" style="swimlane;whiteSpace=wrap;html=1;startSize=50;" vertex="1" parent="yP9o1ustINh5DsTf5xkj-125">
          <mxGeometry x="3500" y="100" width="350" height="160" as="geometry" />
        </mxCell>
        <mxCell id="yP9o1ustINh5DsTf5xkj-133" value="&lt;font style=&quot;&quot;&gt;&lt;font style=&quot;font-size: 25px;&quot;&gt;Graph creating&lt;/font&gt;&lt;br&gt;&lt;/font&gt;" style="swimlane;whiteSpace=wrap;html=1;startSize=50;" vertex="1" parent="yP9o1ustINh5DsTf5xkj-125">
          <mxGeometry x="1140" y="100" width="290" height="160" as="geometry" />
        </mxCell>
        <mxCell id="yP9o1ustINh5DsTf5xkj-134" value="" style="edgeStyle=orthogonalEdgeStyle;rounded=0;orthogonalLoop=1;jettySize=auto;html=1;exitX=1;exitY=0.5;exitDx=0;exitDy=0;entryX=0;entryY=0.5;entryDx=0;entryDy=0;startArrow=none;startFill=0;dashed=1;curved=1;" edge="1" parent="yP9o1ustINh5DsTf5xkj-125" source="yP9o1ustINh5DsTf5xkj-128" target="yP9o1ustINh5DsTf5xkj-133">
          <mxGeometry relative="1" as="geometry">
            <mxPoint x="-1370" y="10460" as="sourcePoint" />
            <mxPoint x="-810" y="10460" as="targetPoint" />
          </mxGeometry>
        </mxCell>
        <mxCell id="yP9o1ustINh5DsTf5xkj-135" value="Map, Tameplate, Model" style="edgeLabel;html=1;align=center;verticalAlign=middle;resizable=0;points=[];" vertex="1" connectable="0" parent="yP9o1ustINh5DsTf5xkj-134">
          <mxGeometry x="0.8083" y="1" relative="1" as="geometry">
            <mxPoint y="-9" as="offset" />
          </mxGeometry>
        </mxCell>
        <mxCell id="yP9o1ustINh5DsTf5xkj-136" value="&lt;font style=&quot;font-size: 50px;&quot;&gt;&lt;font color=&quot;#cc0000&quot;&gt;Model&lt;/font&gt;&lt;br&gt;&lt;/font&gt;" style="swimlane;whiteSpace=wrap;html=1;startSize=80;" vertex="1" parent="yP9o1ustINh5DsTf5xkj-115">
          <mxGeometry x="120" y="1390" width="4100" height="750" as="geometry" />
        </mxCell>
        <mxCell id="yP9o1ustINh5DsTf5xkj-137" value="&lt;font style=&quot;&quot;&gt;&lt;font style=&quot;font-size: 30px;&quot;&gt;Map file manager&lt;/font&gt;&lt;br&gt;&lt;/font&gt;" style="swimlane;whiteSpace=wrap;html=1;startSize=50;" vertex="1" parent="yP9o1ustINh5DsTf5xkj-136">
          <mxGeometry x="400" y="110" width="440" height="580" as="geometry" />
        </mxCell>
        <mxCell id="yP9o1ustINh5DsTf5xkj-138" value="&lt;font style=&quot;&quot;&gt;&lt;font style=&quot;font-size: 20px;&quot;&gt;Resource manager&lt;/font&gt;&lt;br&gt;&lt;/font&gt;" style="swimlane;whiteSpace=wrap;html=1;startSize=40;" vertex="1" parent="yP9o1ustINh5DsTf5xkj-137">
          <mxGeometry x="30" y="120" width="300" height="290" as="geometry" />
        </mxCell>
        <mxCell id="yP9o1ustINh5DsTf5xkj-139" value="&lt;font style=&quot;&quot;&gt;&lt;font style=&quot;font-size: 30px;&quot;&gt;Tamplate manager&lt;/font&gt;&lt;br&gt;&lt;/font&gt;" style="swimlane;whiteSpace=wrap;html=1;startSize=50;" vertex="1" parent="yP9o1ustINh5DsTf5xkj-136">
          <mxGeometry x="20" y="110" width="350" height="580" as="geometry" />
        </mxCell>
        <mxCell id="yP9o1ustINh5DsTf5xkj-140" value="&lt;font style=&quot;&quot;&gt;&lt;font style=&quot;font-size: 30px;&quot;&gt;Graph constructor interface&lt;/font&gt;&lt;br&gt;&lt;/font&gt;" style="swimlane;whiteSpace=wrap;html=1;startSize=50;" vertex="1" parent="yP9o1ustINh5DsTf5xkj-136">
          <mxGeometry x="1420" y="110" width="420" height="580" as="geometry" />
        </mxCell>
        <mxCell id="yP9o1ustINh5DsTf5xkj-141" value="&lt;font style=&quot;&quot;&gt;&lt;font style=&quot;font-size: 30px;&quot;&gt;Model instance manager&lt;/font&gt;&lt;br&gt;&lt;/font&gt;" style="swimlane;whiteSpace=wrap;html=1;startSize=50;" vertex="1" parent="yP9o1ustINh5DsTf5xkj-136">
          <mxGeometry x="1880" y="110" width="400" height="580" as="geometry" />
        </mxCell>
        <mxCell id="yP9o1ustINh5DsTf5xkj-142" value="&lt;font style=&quot;&quot;&gt;&lt;font style=&quot;font-size: 20px;&quot;&gt;Resource manager&lt;/font&gt;&lt;br&gt;&lt;/font&gt;" style="swimlane;whiteSpace=wrap;html=1;startSize=40;" vertex="1" parent="yP9o1ustINh5DsTf5xkj-141">
          <mxGeometry x="55" y="90" width="305" height="260" as="geometry" />
        </mxCell>
        <mxCell id="yP9o1ustINh5DsTf5xkj-143" value="&lt;font style=&quot;&quot;&gt;&lt;font style=&quot;font-size: 30px;&quot;&gt;Elevation data manager interface&lt;/font&gt;&lt;br&gt;&lt;/font&gt;" style="swimlane;whiteSpace=wrap;html=1;startSize=50;" vertex="1" parent="yP9o1ustINh5DsTf5xkj-136">
          <mxGeometry x="850" y="110" width="490" height="580" as="geometry" />
        </mxCell>
        <mxCell id="yP9o1ustINh5DsTf5xkj-144" value="&lt;font style=&quot;&quot;&gt;&lt;font style=&quot;font-size: 20px;&quot;&gt;Data retriever&lt;/font&gt;&lt;br&gt;&lt;/font&gt;" style="swimlane;whiteSpace=wrap;html=1;startSize=40;" vertex="1" parent="yP9o1ustINh5DsTf5xkj-143">
          <mxGeometry x="40" y="70" width="160" height="180" as="geometry" />
        </mxCell>
        <mxCell id="yP9o1ustINh5DsTf5xkj-145" value="&lt;font style=&quot;&quot;&gt;&lt;font style=&quot;font-size: 20px;&quot;&gt;Resource manager&lt;/font&gt;&lt;br&gt;&lt;/font&gt;" style="swimlane;whiteSpace=wrap;html=1;startSize=40;" vertex="1" parent="yP9o1ustINh5DsTf5xkj-143">
          <mxGeometry x="240" y="70" width="200" height="180" as="geometry" />
        </mxCell>
        <mxCell id="yP9o1ustINh5DsTf5xkj-146" value="&lt;font style=&quot;&quot;&gt;&lt;font style=&quot;font-size: 20px;&quot;&gt;Data processing&lt;/font&gt;&lt;br&gt;&lt;/font&gt;" style="swimlane;whiteSpace=wrap;html=1;startSize=40;" vertex="1" parent="yP9o1ustINh5DsTf5xkj-143">
          <mxGeometry x="40" y="280" width="400" height="110" as="geometry" />
        </mxCell>
        <mxCell id="yP9o1ustINh5DsTf5xkj-147" value="&lt;font style=&quot;&quot;&gt;&lt;font style=&quot;font-size: 30px;&quot;&gt;Graph by model filler interface&lt;/font&gt;&lt;br&gt;&lt;/font&gt;" style="swimlane;whiteSpace=wrap;html=1;startSize=50;" vertex="1" parent="yP9o1ustINh5DsTf5xkj-136">
          <mxGeometry x="2310" y="110" width="470" height="580" as="geometry" />
        </mxCell>
        <mxCell id="yP9o1ustINh5DsTf5xkj-148" style="edgeStyle=orthogonalEdgeStyle;rounded=0;orthogonalLoop=1;jettySize=auto;html=1;exitX=1;exitY=0.75;exitDx=0;exitDy=0;entryX=0;entryY=0.75;entryDx=0;entryDy=0;dashed=1;curved=1;" edge="1" parent="yP9o1ustINh5DsTf5xkj-136" source="yP9o1ustINh5DsTf5xkj-143" target="yP9o1ustINh5DsTf5xkj-140">
          <mxGeometry relative="1" as="geometry">
            <mxPoint x="2255" y="210" as="sourcePoint" />
          </mxGeometry>
        </mxCell>
        <mxCell id="yP9o1ustINh5DsTf5xkj-149" value="Elevation" style="edgeLabel;html=1;align=center;verticalAlign=middle;resizable=0;points=[];" vertex="1" connectable="0" parent="yP9o1ustINh5DsTf5xkj-148">
          <mxGeometry x="0.2267" y="-2" relative="1" as="geometry">
            <mxPoint x="-7" y="-17" as="offset" />
          </mxGeometry>
        </mxCell>
        <mxCell id="yP9o1ustINh5DsTf5xkj-150" value="&lt;font style=&quot;&quot;&gt;&lt;font style=&quot;font-size: 30px;&quot;&gt;Algorithm executor interface&lt;/font&gt;&lt;br&gt;&lt;/font&gt;" style="swimlane;whiteSpace=wrap;html=1;startSize=50;" vertex="1" parent="yP9o1ustINh5DsTf5xkj-136">
          <mxGeometry x="2810" y="110" width="460" height="580" as="geometry" />
        </mxCell>
        <mxCell id="yP9o1ustINh5DsTf5xkj-151" value="&lt;font style=&quot;&quot;&gt;&lt;font style=&quot;font-size: 30px;&quot;&gt;Path graphic representation&lt;/font&gt;&lt;br&gt;&lt;/font&gt;" style="swimlane;whiteSpace=wrap;html=1;startSize=80;" vertex="1" parent="yP9o1ustINh5DsTf5xkj-136">
          <mxGeometry x="3300" y="110" width="280" height="580" as="geometry" />
        </mxCell>
        <mxCell id="yP9o1ustINh5DsTf5xkj-152" value="&lt;font style=&quot;&quot;&gt;&lt;span style=&quot;font-size: 30px;&quot;&gt;Map graphic repre interface&lt;/span&gt;&lt;br&gt;&lt;/font&gt;" style="swimlane;whiteSpace=wrap;html=1;startSize=50;" vertex="1" parent="yP9o1ustINh5DsTf5xkj-136">
          <mxGeometry x="3610" y="110" width="420" height="580" as="geometry" />
        </mxCell>
        <mxCell id="yP9o1ustINh5DsTf5xkj-153" value="&lt;font style=&quot;&quot;&gt;&lt;font style=&quot;font-size: 20px;&quot;&gt;Map cut-scaler&lt;/font&gt;&lt;br&gt;&lt;/font&gt;" style="swimlane;whiteSpace=wrap;html=1;startSize=40;" vertex="1" parent="yP9o1ustINh5DsTf5xkj-152">
          <mxGeometry x="75" y="440" width="270" height="90" as="geometry" />
        </mxCell>
        <mxCell id="yP9o1ustINh5DsTf5xkj-154" style="edgeStyle=orthogonalEdgeStyle;rounded=0;orthogonalLoop=1;jettySize=auto;html=1;exitX=0.25;exitY=0;exitDx=0;exitDy=0;entryX=0.25;entryY=1;entryDx=0;entryDy=0;startArrow=classic;startFill=1;dashed=1;curved=1;" edge="1" parent="yP9o1ustINh5DsTf5xkj-115" source="yP9o1ustINh5DsTf5xkj-137" target="yP9o1ustINh5DsTf5xkj-124">
          <mxGeometry relative="1" as="geometry" />
        </mxCell>
        <mxCell id="yP9o1ustINh5DsTf5xkj-155" value="Map" style="edgeLabel;html=1;align=center;verticalAlign=middle;resizable=0;points=[];rotation=270;" vertex="1" connectable="0" parent="yP9o1ustINh5DsTf5xkj-154">
          <mxGeometry x="0.8705" relative="1" as="geometry">
            <mxPoint x="-15" y="-8" as="offset" />
          </mxGeometry>
        </mxCell>
        <mxCell id="yP9o1ustINh5DsTf5xkj-156" value="Tamplate" style="edgeLabel;html=1;align=center;verticalAlign=middle;resizable=0;points=[];rotation=90;" vertex="1" connectable="0" parent="yP9o1ustINh5DsTf5xkj-154">
          <mxGeometry x="-0.8301" y="2" relative="1" as="geometry">
            <mxPoint x="12" y="10" as="offset" />
          </mxGeometry>
        </mxCell>
        <mxCell id="yP9o1ustINh5DsTf5xkj-157" style="edgeStyle=orthogonalEdgeStyle;rounded=0;orthogonalLoop=1;jettySize=auto;html=1;exitX=0.25;exitY=1;exitDx=0;exitDy=0;dashed=1;curved=1;entryX=0.25;entryY=0;entryDx=0;entryDy=0;startArrow=classic;startFill=1;" edge="1" parent="yP9o1ustINh5DsTf5xkj-115" source="yP9o1ustINh5DsTf5xkj-137" target="yP9o1ustINh5DsTf5xkj-128">
          <mxGeometry relative="1" as="geometry" />
        </mxCell>
        <mxCell id="yP9o1ustINh5DsTf5xkj-158" value="Tameplate" style="edgeLabel;html=1;align=center;verticalAlign=middle;resizable=0;points=[];rotation=-90;" vertex="1" connectable="0" parent="yP9o1ustINh5DsTf5xkj-157">
          <mxGeometry x="-0.9694" y="-1" relative="1" as="geometry">
            <mxPoint x="-19" y="25" as="offset" />
          </mxGeometry>
        </mxCell>
        <mxCell id="yP9o1ustINh5DsTf5xkj-159" value="Map" style="edgeLabel;html=1;align=center;verticalAlign=middle;resizable=0;points=[];rotation=90;" vertex="1" connectable="0" parent="yP9o1ustINh5DsTf5xkj-157">
          <mxGeometry x="0.9289" y="3" relative="1" as="geometry">
            <mxPoint x="15" y="5" as="offset" />
          </mxGeometry>
        </mxCell>
        <mxCell id="yP9o1ustINh5DsTf5xkj-160" style="edgeStyle=orthogonalEdgeStyle;rounded=0;orthogonalLoop=1;jettySize=auto;html=1;exitX=0.25;exitY=1;exitDx=0;exitDy=0;entryX=0;entryY=0;entryDx=0;entryDy=0;curved=1;dashed=1;" edge="1" parent="yP9o1ustINh5DsTf5xkj-115" source="yP9o1ustINh5DsTf5xkj-139" target="yP9o1ustINh5DsTf5xkj-128">
          <mxGeometry relative="1" as="geometry" />
        </mxCell>
        <mxCell id="yP9o1ustINh5DsTf5xkj-161" value="Tameplate" style="edgeLabel;html=1;align=center;verticalAlign=middle;resizable=0;points=[];rotation=90;" vertex="1" connectable="0" parent="yP9o1ustINh5DsTf5xkj-160">
          <mxGeometry x="0.8756" y="-1" relative="1" as="geometry">
            <mxPoint x="12" y="-5" as="offset" />
          </mxGeometry>
        </mxCell>
        <mxCell id="yP9o1ustINh5DsTf5xkj-162" style="edgeStyle=orthogonalEdgeStyle;rounded=0;orthogonalLoop=1;jettySize=auto;html=1;exitX=0.25;exitY=0;exitDx=0;exitDy=0;entryX=0;entryY=1;entryDx=0;entryDy=0;dashed=1;curved=1;" edge="1" parent="yP9o1ustINh5DsTf5xkj-115" source="yP9o1ustINh5DsTf5xkj-139" target="yP9o1ustINh5DsTf5xkj-124">
          <mxGeometry relative="1" as="geometry" />
        </mxCell>
        <mxCell id="yP9o1ustINh5DsTf5xkj-163" value="Tameplate" style="edgeLabel;html=1;align=center;verticalAlign=middle;resizable=0;points=[];rotation=270;" vertex="1" connectable="0" parent="yP9o1ustINh5DsTf5xkj-162">
          <mxGeometry x="0.8356" y="1" relative="1" as="geometry">
            <mxPoint x="-16" y="-1" as="offset" />
          </mxGeometry>
        </mxCell>
        <mxCell id="yP9o1ustINh5DsTf5xkj-164" style="edgeStyle=orthogonalEdgeStyle;rounded=0;orthogonalLoop=1;jettySize=auto;html=1;exitX=0.5;exitY=1;exitDx=0;exitDy=0;dashed=1;curved=1;startArrow=classic;startFill=1;" edge="1" parent="yP9o1ustINh5DsTf5xkj-115" source="yP9o1ustINh5DsTf5xkj-140" target="yP9o1ustINh5DsTf5xkj-133">
          <mxGeometry relative="1" as="geometry" />
        </mxCell>
        <mxCell id="yP9o1ustINh5DsTf5xkj-165" value="Map, Tameplatee" style="edgeLabel;html=1;align=center;verticalAlign=middle;resizable=0;points=[];rotation=-90;" vertex="1" connectable="0" parent="yP9o1ustINh5DsTf5xkj-164">
          <mxGeometry x="-0.8836" y="-5" relative="1" as="geometry">
            <mxPoint x="-15" as="offset" />
          </mxGeometry>
        </mxCell>
        <mxCell id="yP9o1ustINh5DsTf5xkj-166" value="Graph" style="edgeLabel;html=1;align=center;verticalAlign=middle;resizable=0;points=[];rotation=90;" vertex="1" connectable="0" parent="yP9o1ustINh5DsTf5xkj-164">
          <mxGeometry x="0.9295" relative="1" as="geometry">
            <mxPoint x="15" y="-1" as="offset" />
          </mxGeometry>
        </mxCell>
        <mxCell id="yP9o1ustINh5DsTf5xkj-167" value="" style="edgeStyle=orthogonalEdgeStyle;rounded=0;orthogonalLoop=1;jettySize=auto;html=1;exitX=0.5;exitY=1;exitDx=0;exitDy=0;entryX=0.5;entryY=0;entryDx=0;entryDy=0;curved=1;dashed=1;startArrow=classic;startFill=1;horizontal=1;labelPosition=center;verticalLabelPosition=middle;align=center;verticalAlign=middle;" edge="1" parent="yP9o1ustINh5DsTf5xkj-115" source="yP9o1ustINh5DsTf5xkj-118" target="yP9o1ustINh5DsTf5xkj-140">
          <mxGeometry x="0.0081" relative="1" as="geometry">
            <mxPoint as="offset" />
          </mxGeometry>
        </mxCell>
        <mxCell id="yP9o1ustINh5DsTf5xkj-168" value="Graph" style="edgeLabel;html=1;align=center;verticalAlign=middle;resizable=0;points=[];horizontal=1;rotation=270;" vertex="1" connectable="0" parent="yP9o1ustINh5DsTf5xkj-167">
          <mxGeometry x="-0.923" y="-3" relative="1" as="geometry">
            <mxPoint x="-12" y="6" as="offset" />
          </mxGeometry>
        </mxCell>
        <mxCell id="yP9o1ustINh5DsTf5xkj-169" value="Map, Tameplate" style="edgeLabel;html=1;align=center;verticalAlign=middle;resizable=0;points=[];horizontal=1;rotation=90;" vertex="1" connectable="0" parent="yP9o1ustINh5DsTf5xkj-167">
          <mxGeometry x="0.8719" y="2" relative="1" as="geometry">
            <mxPoint x="8" y="-21" as="offset" />
          </mxGeometry>
        </mxCell>
        <mxCell id="yP9o1ustINh5DsTf5xkj-170" style="edgeStyle=orthogonalEdgeStyle;rounded=0;orthogonalLoop=1;jettySize=auto;html=1;exitX=0.25;exitY=0;exitDx=0;exitDy=0;entryX=0.75;entryY=1;entryDx=0;entryDy=0;dashed=1;curved=1;startArrow=classic;startFill=1;" edge="1" parent="yP9o1ustINh5DsTf5xkj-115" source="yP9o1ustINh5DsTf5xkj-141" target="yP9o1ustINh5DsTf5xkj-124">
          <mxGeometry relative="1" as="geometry" />
        </mxCell>
        <mxCell id="yP9o1ustINh5DsTf5xkj-171" value="Model" style="edgeLabel;html=1;align=center;verticalAlign=middle;resizable=0;points=[];rotation=270;" vertex="1" connectable="0" parent="yP9o1ustINh5DsTf5xkj-170">
          <mxGeometry x="0.972" y="1" relative="1" as="geometry">
            <mxPoint x="-9" as="offset" />
          </mxGeometry>
        </mxCell>
        <mxCell id="yP9o1ustINh5DsTf5xkj-172" value="Tameplate" style="edgeLabel;html=1;align=center;verticalAlign=middle;resizable=0;points=[];rotation=90;" vertex="1" connectable="0" parent="yP9o1ustINh5DsTf5xkj-170">
          <mxGeometry x="-0.9654" y="4" relative="1" as="geometry">
            <mxPoint x="-16" y="-6" as="offset" />
          </mxGeometry>
        </mxCell>
        <mxCell id="yP9o1ustINh5DsTf5xkj-173" style="edgeStyle=orthogonalEdgeStyle;rounded=0;orthogonalLoop=1;jettySize=auto;html=1;exitX=1;exitY=0;exitDx=0;exitDy=0;entryX=0.75;entryY=1;entryDx=0;entryDy=0;dashed=1;curved=1;" edge="1" parent="yP9o1ustINh5DsTf5xkj-115" source="yP9o1ustINh5DsTf5xkj-131" target="yP9o1ustINh5DsTf5xkj-141">
          <mxGeometry relative="1" as="geometry" />
        </mxCell>
        <mxCell id="yP9o1ustINh5DsTf5xkj-174" value="Model" style="edgeLabel;html=1;align=center;verticalAlign=middle;resizable=0;points=[];rotation=-90;" vertex="1" connectable="0" parent="yP9o1ustINh5DsTf5xkj-173">
          <mxGeometry x="0.9337" y="-2" relative="1" as="geometry">
            <mxPoint x="-22" y="-11" as="offset" />
          </mxGeometry>
        </mxCell>
        <mxCell id="yP9o1ustINh5DsTf5xkj-175" style="edgeStyle=orthogonalEdgeStyle;rounded=0;orthogonalLoop=1;jettySize=auto;html=1;exitX=0.25;exitY=1;exitDx=0;exitDy=0;entryX=0.75;entryY=0;entryDx=0;entryDy=0;curved=1;dashed=1;startArrow=classic;startFill=1;" edge="1" parent="yP9o1ustINh5DsTf5xkj-115" source="yP9o1ustINh5DsTf5xkj-141" target="yP9o1ustINh5DsTf5xkj-128">
          <mxGeometry relative="1" as="geometry">
            <mxPoint x="2082.5" y="2120" as="sourcePoint" />
            <mxPoint x="470" y="2670" as="targetPoint" />
          </mxGeometry>
        </mxCell>
        <mxCell id="yP9o1ustINh5DsTf5xkj-176" value="Model" style="edgeLabel;html=1;align=center;verticalAlign=middle;resizable=0;points=[];rotation=90;" vertex="1" connectable="0" parent="yP9o1ustINh5DsTf5xkj-175">
          <mxGeometry x="0.9747" relative="1" as="geometry">
            <mxPoint x="13" as="offset" />
          </mxGeometry>
        </mxCell>
        <mxCell id="yP9o1ustINh5DsTf5xkj-177" value="Tameplate" style="edgeLabel;html=1;align=center;verticalAlign=middle;resizable=0;points=[];rotation=-90;" vertex="1" connectable="0" parent="yP9o1ustINh5DsTf5xkj-175">
          <mxGeometry x="-0.9865" y="-1" relative="1" as="geometry">
            <mxPoint x="-19" y="15" as="offset" />
          </mxGeometry>
        </mxCell>
        <mxCell id="yP9o1ustINh5DsTf5xkj-178" style="edgeStyle=orthogonalEdgeStyle;rounded=0;orthogonalLoop=1;jettySize=auto;html=1;exitX=0.25;exitY=0;exitDx=0;exitDy=0;entryX=0.5;entryY=1;entryDx=0;entryDy=0;dashed=1;curved=1;startArrow=classic;startFill=1;horizontal=1;endArrow=none;endFill=0;" edge="1" parent="yP9o1ustINh5DsTf5xkj-115" source="yP9o1ustINh5DsTf5xkj-147" target="yP9o1ustINh5DsTf5xkj-121">
          <mxGeometry relative="1" as="geometry" />
        </mxCell>
        <mxCell id="yP9o1ustINh5DsTf5xkj-179" value="Graph, Model" style="edgeLabel;html=1;align=center;verticalAlign=middle;resizable=0;points=[];rotation=90;" vertex="1" connectable="0" parent="yP9o1ustINh5DsTf5xkj-178">
          <mxGeometry x="-0.8836" y="-1" relative="1" as="geometry">
            <mxPoint x="14" y="-17" as="offset" />
          </mxGeometry>
        </mxCell>
        <mxCell id="yP9o1ustINh5DsTf5xkj-180" style="edgeStyle=orthogonalEdgeStyle;rounded=0;orthogonalLoop=1;jettySize=auto;html=1;exitX=0.25;exitY=1;exitDx=0;exitDy=0;entryX=0.25;entryY=0;entryDx=0;entryDy=0;dashed=1;curved=1;startArrow=classic;startFill=1;endArrow=none;endFill=0;" edge="1" parent="yP9o1ustINh5DsTf5xkj-115" source="yP9o1ustINh5DsTf5xkj-147" target="yP9o1ustINh5DsTf5xkj-131">
          <mxGeometry relative="1" as="geometry" />
        </mxCell>
        <mxCell id="yP9o1ustINh5DsTf5xkj-181" value="Graph, Model" style="edgeLabel;html=1;align=center;verticalAlign=middle;resizable=0;points=[];rotation=-90;" vertex="1" connectable="0" parent="yP9o1ustINh5DsTf5xkj-180">
          <mxGeometry x="-0.9432" y="-4" relative="1" as="geometry">
            <mxPoint x="-11" y="12" as="offset" />
          </mxGeometry>
        </mxCell>
        <mxCell id="yP9o1ustINh5DsTf5xkj-182" style="edgeStyle=orthogonalEdgeStyle;rounded=0;orthogonalLoop=1;jettySize=auto;html=1;exitX=0.25;exitY=0;exitDx=0;exitDy=0;entryX=0.75;entryY=1;entryDx=0;entryDy=0;dashed=1;curved=1;startArrow=classic;startFill=1;" edge="1" parent="yP9o1ustINh5DsTf5xkj-115" source="yP9o1ustINh5DsTf5xkj-150" target="yP9o1ustINh5DsTf5xkj-121">
          <mxGeometry relative="1" as="geometry" />
        </mxCell>
        <mxCell id="yP9o1ustINh5DsTf5xkj-183" value="Graph" style="edgeLabel;html=1;align=center;verticalAlign=middle;resizable=0;points=[];rotation=90;" vertex="1" connectable="0" parent="yP9o1ustINh5DsTf5xkj-182">
          <mxGeometry x="-0.923" y="-3" relative="1" as="geometry">
            <mxPoint x="12" y="7" as="offset" />
          </mxGeometry>
        </mxCell>
        <mxCell id="yP9o1ustINh5DsTf5xkj-184" value="Path" style="edgeLabel;html=1;align=center;verticalAlign=middle;resizable=0;points=[];rotation=-90;" vertex="1" connectable="0" parent="yP9o1ustINh5DsTf5xkj-182">
          <mxGeometry x="0.9174" y="-1" relative="1" as="geometry">
            <mxPoint x="-15" y="-9" as="offset" />
          </mxGeometry>
        </mxCell>
        <mxCell id="yP9o1ustINh5DsTf5xkj-185" style="edgeStyle=orthogonalEdgeStyle;rounded=0;orthogonalLoop=1;jettySize=auto;html=1;exitX=0.5;exitY=0;exitDx=0;exitDy=0;entryX=0.25;entryY=1;entryDx=0;entryDy=0;startArrow=classic;startFill=1;dashed=1;curved=1;" edge="1" parent="yP9o1ustINh5DsTf5xkj-115" source="yP9o1ustINh5DsTf5xkj-150" target="yP9o1ustINh5DsTf5xkj-122">
          <mxGeometry relative="1" as="geometry" />
        </mxCell>
        <mxCell id="yP9o1ustINh5DsTf5xkj-186" value="Graph" style="edgeLabel;html=1;align=center;verticalAlign=middle;resizable=0;points=[];rotation=90;" vertex="1" connectable="0" parent="yP9o1ustINh5DsTf5xkj-185">
          <mxGeometry x="-0.87" y="3" relative="1" as="geometry">
            <mxPoint x="23" y="3" as="offset" />
          </mxGeometry>
        </mxCell>
        <mxCell id="yP9o1ustINh5DsTf5xkj-187" value="Paths" style="edgeLabel;html=1;align=center;verticalAlign=middle;resizable=0;points=[];rotation=-90;" vertex="1" connectable="0" parent="yP9o1ustINh5DsTf5xkj-185">
          <mxGeometry x="0.8809" y="-1" relative="1" as="geometry">
            <mxPoint x="-19" as="offset" />
          </mxGeometry>
        </mxCell>
        <mxCell id="yP9o1ustINh5DsTf5xkj-188" style="edgeStyle=orthogonalEdgeStyle;rounded=0;orthogonalLoop=1;jettySize=auto;html=1;exitX=0.25;exitY=1;exitDx=0;exitDy=0;entryX=0.25;entryY=0;entryDx=0;entryDy=0;startArrow=classic;startFill=1;dashed=1;curved=1;" edge="1" parent="yP9o1ustINh5DsTf5xkj-115" source="yP9o1ustINh5DsTf5xkj-150" target="yP9o1ustINh5DsTf5xkj-132">
          <mxGeometry relative="1" as="geometry" />
        </mxCell>
        <mxCell id="yP9o1ustINh5DsTf5xkj-189" value="Graph" style="edgeLabel;html=1;align=center;verticalAlign=middle;resizable=0;points=[];rotation=-90;" vertex="1" connectable="0" parent="yP9o1ustINh5DsTf5xkj-188">
          <mxGeometry x="-0.9196" y="1" relative="1" as="geometry">
            <mxPoint x="-16" as="offset" />
          </mxGeometry>
        </mxCell>
        <mxCell id="yP9o1ustINh5DsTf5xkj-190" value="Paths" style="edgeLabel;html=1;align=center;verticalAlign=middle;resizable=0;points=[];rotation=90;" vertex="1" connectable="0" parent="yP9o1ustINh5DsTf5xkj-188">
          <mxGeometry x="0.9225" y="3" relative="1" as="geometry">
            <mxPoint x="10" as="offset" />
          </mxGeometry>
        </mxCell>
        <mxCell id="yP9o1ustINh5DsTf5xkj-191" style="edgeStyle=orthogonalEdgeStyle;rounded=0;orthogonalLoop=1;jettySize=auto;html=1;exitX=0.25;exitY=1;exitDx=0;exitDy=0;entryX=0;entryY=0;entryDx=0;entryDy=0;dashed=1;curved=1;startArrow=classic;startFill=1;" edge="1" parent="yP9o1ustINh5DsTf5xkj-115" source="yP9o1ustINh5DsTf5xkj-151" target="yP9o1ustINh5DsTf5xkj-249">
          <mxGeometry relative="1" as="geometry" />
        </mxCell>
        <mxCell id="yP9o1ustINh5DsTf5xkj-192" value="PathGraphics" style="edgeLabel;html=1;align=center;verticalAlign=middle;resizable=0;points=[];rotation=0;" vertex="1" connectable="0" parent="yP9o1ustINh5DsTf5xkj-191">
          <mxGeometry x="0.8486" relative="1" as="geometry">
            <mxPoint x="20" y="83" as="offset" />
          </mxGeometry>
        </mxCell>
        <mxCell id="yP9o1ustINh5DsTf5xkj-193" value="Path" style="edgeLabel;html=1;align=center;verticalAlign=middle;resizable=0;points=[];rotation=-90;" vertex="1" connectable="0" parent="yP9o1ustINh5DsTf5xkj-191">
          <mxGeometry x="-0.8621" y="2" relative="1" as="geometry">
            <mxPoint x="-12" y="-102" as="offset" />
          </mxGeometry>
        </mxCell>
        <mxCell id="yP9o1ustINh5DsTf5xkj-194" style="edgeStyle=orthogonalEdgeStyle;rounded=0;orthogonalLoop=1;jettySize=auto;html=1;exitX=0;exitY=0.5;exitDx=0;exitDy=0;entryX=0;entryY=0;entryDx=0;entryDy=0;dashed=1;curved=1;startArrow=classic;startFill=1;" edge="1" parent="yP9o1ustINh5DsTf5xkj-115" source="yP9o1ustINh5DsTf5xkj-246" target="yP9o1ustINh5DsTf5xkj-151">
          <mxGeometry relative="1" as="geometry" />
        </mxCell>
        <mxCell id="yP9o1ustINh5DsTf5xkj-195" value="Path" style="edgeLabel;html=1;align=center;verticalAlign=middle;resizable=0;points=[];rotation=90;" vertex="1" connectable="0" parent="yP9o1ustINh5DsTf5xkj-194">
          <mxGeometry x="0.9384" y="-7" relative="1" as="geometry">
            <mxPoint x="17" y="9" as="offset" />
          </mxGeometry>
        </mxCell>
        <mxCell id="yP9o1ustINh5DsTf5xkj-196" value="PathGraphics" style="edgeLabel;html=1;align=center;verticalAlign=middle;resizable=0;points=[];rotation=-90;" vertex="1" connectable="0" parent="yP9o1ustINh5DsTf5xkj-194">
          <mxGeometry x="-0.9591" y="-1" relative="1" as="geometry">
            <mxPoint x="-11" y="14" as="offset" />
          </mxGeometry>
        </mxCell>
        <mxCell id="yP9o1ustINh5DsTf5xkj-197" style="edgeStyle=orthogonalEdgeStyle;rounded=0;orthogonalLoop=1;jettySize=auto;html=1;exitX=0;exitY=1;exitDx=0;exitDy=0;dashed=1;curved=1;startArrow=classic;startFill=1;entryX=0.25;entryY=0;entryDx=0;entryDy=0;" edge="1" parent="yP9o1ustINh5DsTf5xkj-115" source="yP9o1ustINh5DsTf5xkj-248" target="yP9o1ustINh5DsTf5xkj-151">
          <mxGeometry relative="1" as="geometry">
            <mxPoint x="3480" y="1500" as="targetPoint" />
          </mxGeometry>
        </mxCell>
        <mxCell id="yP9o1ustINh5DsTf5xkj-198" value="Path" style="edgeLabel;html=1;align=center;verticalAlign=middle;resizable=0;points=[];rotation=90;" vertex="1" connectable="0" parent="yP9o1ustINh5DsTf5xkj-197">
          <mxGeometry x="0.8886" relative="1" as="geometry">
            <mxPoint x="10" as="offset" />
          </mxGeometry>
        </mxCell>
        <mxCell id="yP9o1ustINh5DsTf5xkj-199" value="PathGraphics" style="edgeLabel;html=1;align=center;verticalAlign=middle;resizable=0;points=[];rotation=-90;" vertex="1" connectable="0" parent="yP9o1ustINh5DsTf5xkj-197">
          <mxGeometry x="-0.8846" y="-3" relative="1" as="geometry">
            <mxPoint x="3" y="-22" as="offset" />
          </mxGeometry>
        </mxCell>
        <mxCell id="yP9o1ustINh5DsTf5xkj-200" style="edgeStyle=orthogonalEdgeStyle;rounded=0;orthogonalLoop=1;jettySize=auto;html=1;exitX=1;exitY=0;exitDx=0;exitDy=0;entryX=0;entryY=0.5;entryDx=0;entryDy=0;dashed=1;curved=1;startArrow=classic;startFill=1;" edge="1" parent="yP9o1ustINh5DsTf5xkj-115" source="yP9o1ustINh5DsTf5xkj-152" target="yP9o1ustINh5DsTf5xkj-243">
          <mxGeometry relative="1" as="geometry" />
        </mxCell>
        <mxCell id="yP9o1ustINh5DsTf5xkj-201" value="Map" style="edgeLabel;html=1;align=center;verticalAlign=middle;resizable=0;points=[];rotation=90;" vertex="1" connectable="0" parent="yP9o1ustINh5DsTf5xkj-200">
          <mxGeometry x="-0.9011" y="3" relative="1" as="geometry">
            <mxPoint x="3" y="41" as="offset" />
          </mxGeometry>
        </mxCell>
        <mxCell id="yP9o1ustINh5DsTf5xkj-202" value="Graphics" style="edgeLabel;html=1;align=center;verticalAlign=middle;resizable=0;points=[];rotation=270;" vertex="1" connectable="0" parent="yP9o1ustINh5DsTf5xkj-200">
          <mxGeometry x="0.9365" y="2" relative="1" as="geometry">
            <mxPoint x="8" y="12" as="offset" />
          </mxGeometry>
        </mxCell>
        <mxCell id="yP9o1ustINh5DsTf5xkj-203" style="edgeStyle=orthogonalEdgeStyle;rounded=0;orthogonalLoop=1;jettySize=auto;html=1;exitX=1;exitY=0.5;exitDx=0;exitDy=0;entryX=0;entryY=0.75;entryDx=0;entryDy=0;dashed=1;curved=1;startArrow=classic;startFill=1;" edge="1" parent="yP9o1ustINh5DsTf5xkj-115" source="yP9o1ustINh5DsTf5xkj-152" target="yP9o1ustINh5DsTf5xkj-246">
          <mxGeometry relative="1" as="geometry" />
        </mxCell>
        <mxCell id="yP9o1ustINh5DsTf5xkj-204" value="Map" style="edgeLabel;html=1;align=center;verticalAlign=middle;resizable=0;points=[];rotation=90;" vertex="1" connectable="0" parent="yP9o1ustINh5DsTf5xkj-203">
          <mxGeometry x="-0.9642" y="-1" relative="1" as="geometry">
            <mxPoint x="19" y="-22" as="offset" />
          </mxGeometry>
        </mxCell>
        <mxCell id="yP9o1ustINh5DsTf5xkj-205" value="Graphics" style="edgeLabel;html=1;align=center;verticalAlign=middle;resizable=0;points=[];rotation=270;" vertex="1" connectable="0" parent="yP9o1ustINh5DsTf5xkj-203">
          <mxGeometry x="0.9752" y="2" relative="1" as="geometry">
            <mxPoint x="-16" y="12" as="offset" />
          </mxGeometry>
        </mxCell>
        <mxCell id="yP9o1ustINh5DsTf5xkj-206" style="edgeStyle=orthogonalEdgeStyle;rounded=0;orthogonalLoop=1;jettySize=auto;html=1;exitX=1;exitY=0.25;exitDx=0;exitDy=0;entryX=0;entryY=0.75;entryDx=0;entryDy=0;dashed=1;curved=1;startArrow=classic;startFill=1;" edge="1" parent="yP9o1ustINh5DsTf5xkj-115" source="yP9o1ustINh5DsTf5xkj-152" target="yP9o1ustINh5DsTf5xkj-248">
          <mxGeometry relative="1" as="geometry" />
        </mxCell>
        <mxCell id="yP9o1ustINh5DsTf5xkj-207" value="Map" style="edgeLabel;html=1;align=center;verticalAlign=middle;resizable=0;points=[];rotation=90;" vertex="1" connectable="0" parent="yP9o1ustINh5DsTf5xkj-206">
          <mxGeometry x="-0.9805" y="-3" relative="1" as="geometry">
            <mxPoint x="12" y="-18" as="offset" />
          </mxGeometry>
        </mxCell>
        <mxCell id="yP9o1ustINh5DsTf5xkj-208" value="Graphics" style="edgeLabel;html=1;align=center;verticalAlign=middle;resizable=0;points=[];rotation=-90;" vertex="1" connectable="0" parent="yP9o1ustINh5DsTf5xkj-206">
          <mxGeometry x="0.9755" y="10" relative="1" as="geometry">
            <mxPoint x="-28" y="14" as="offset" />
          </mxGeometry>
        </mxCell>
        <mxCell id="yP9o1ustINh5DsTf5xkj-209" style="edgeStyle=orthogonalEdgeStyle;rounded=0;orthogonalLoop=1;jettySize=auto;html=1;exitX=1;exitY=1;exitDx=0;exitDy=0;startArrow=classicThin;startFill=1;dashed=1;curved=1;entryX=0;entryY=0.5;entryDx=0;entryDy=0;" edge="1" parent="yP9o1ustINh5DsTf5xkj-115" source="yP9o1ustINh5DsTf5xkj-152" target="yP9o1ustINh5DsTf5xkj-252">
          <mxGeometry relative="1" as="geometry">
            <mxPoint x="4430" y="2811.777886284722" as="targetPoint" />
          </mxGeometry>
        </mxCell>
        <mxCell id="yP9o1ustINh5DsTf5xkj-210" value="Map" style="edgeLabel;html=1;align=center;verticalAlign=middle;resizable=0;points=[];rotation=-90;" vertex="1" connectable="0" parent="yP9o1ustINh5DsTf5xkj-209">
          <mxGeometry x="-0.9811" relative="1" as="geometry">
            <mxPoint x="-15" y="-4" as="offset" />
          </mxGeometry>
        </mxCell>
        <mxCell id="yP9o1ustINh5DsTf5xkj-211" value="Graphics" style="edgeLabel;html=1;align=center;verticalAlign=middle;resizable=0;points=[];rotation=0;" vertex="1" connectable="0" parent="yP9o1ustINh5DsTf5xkj-209">
          <mxGeometry x="0.9847" relative="1" as="geometry">
            <mxPoint x="-20" y="-11" as="offset" />
          </mxGeometry>
        </mxCell>
        <mxCell id="yP9o1ustINh5DsTf5xkj-212" style="edgeStyle=orthogonalEdgeStyle;rounded=0;orthogonalLoop=1;jettySize=auto;html=1;exitX=1;exitY=0.75;exitDx=0;exitDy=0;entryX=0;entryY=0.333;entryDx=0;entryDy=0;dashed=1;curved=1;startArrow=classic;startFill=1;entryPerimeter=0;" edge="1" parent="yP9o1ustINh5DsTf5xkj-115" source="yP9o1ustINh5DsTf5xkj-152" target="yP9o1ustINh5DsTf5xkj-249">
          <mxGeometry relative="1" as="geometry" />
        </mxCell>
        <mxCell id="yP9o1ustINh5DsTf5xkj-213" value="Map" style="edgeLabel;html=1;align=center;verticalAlign=middle;resizable=0;points=[];rotation=-90;" vertex="1" connectable="0" parent="yP9o1ustINh5DsTf5xkj-212">
          <mxGeometry x="-0.9641" y="1" relative="1" as="geometry">
            <mxPoint x="-11" y="-11" as="offset" />
          </mxGeometry>
        </mxCell>
        <mxCell id="yP9o1ustINh5DsTf5xkj-214" value="Graphics" style="edgeLabel;html=1;align=center;verticalAlign=middle;resizable=0;points=[];rotation=90;" vertex="1" connectable="0" parent="yP9o1ustINh5DsTf5xkj-212">
          <mxGeometry x="0.9708" y="-1" relative="1" as="geometry">
            <mxPoint x="-1" y="-5" as="offset" />
          </mxGeometry>
        </mxCell>
        <mxCell id="yP9o1ustINh5DsTf5xkj-256" style="edgeStyle=orthogonalEdgeStyle;rounded=0;orthogonalLoop=1;jettySize=auto;html=1;exitX=0;exitY=0.25;exitDx=0;exitDy=0;entryX=0.75;entryY=0;entryDx=0;entryDy=0;dashed=1;curved=1;startArrow=none;startFill=0;endArrow=classic;endFill=1;" edge="1" parent="yP9o1ustINh5DsTf5xkj-115" source="yP9o1ustINh5DsTf5xkj-238" target="yP9o1ustINh5DsTf5xkj-143">
          <mxGeometry relative="1" as="geometry">
            <mxPoint x="2970" y="1470" as="targetPoint" />
          </mxGeometry>
        </mxCell>
        <mxCell id="yP9o1ustINh5DsTf5xkj-257" style="edgeStyle=orthogonalEdgeStyle;rounded=0;orthogonalLoop=1;jettySize=auto;html=1;exitX=0;exitY=0.25;exitDx=0;exitDy=0;entryX=0.25;entryY=0;entryDx=0;entryDy=0;curved=1;dashed=1;startArrow=classic;startFill=1;" edge="1" parent="yP9o1ustINh5DsTf5xkj-115" source="yP9o1ustINh5DsTf5xkj-243" target="yP9o1ustINh5DsTf5xkj-124">
          <mxGeometry relative="1" as="geometry" />
        </mxCell>
        <mxCell id="yP9o1ustINh5DsTf5xkj-455" value="Parameters" style="edgeLabel;html=1;align=center;verticalAlign=middle;resizable=0;points=[];" vertex="1" connectable="0" parent="yP9o1ustINh5DsTf5xkj-257">
          <mxGeometry x="0.9918" y="4" relative="1" as="geometry">
            <mxPoint x="9" y="-4" as="offset" />
          </mxGeometry>
        </mxCell>
        <mxCell id="yP9o1ustINh5DsTf5xkj-456" value="Map" style="edgeLabel;html=1;align=center;verticalAlign=middle;resizable=0;points=[];" vertex="1" connectable="0" parent="yP9o1ustINh5DsTf5xkj-257">
          <mxGeometry x="-0.9774" y="5" relative="1" as="geometry">
            <mxPoint x="18" y="-5" as="offset" />
          </mxGeometry>
        </mxCell>
        <mxCell id="yP9o1ustINh5DsTf5xkj-258" style="edgeStyle=orthogonalEdgeStyle;rounded=0;orthogonalLoop=1;jettySize=auto;html=1;exitX=0;exitY=0.75;exitDx=0;exitDy=0;entryX=0;entryY=1;entryDx=0;entryDy=0;dashed=1;curved=1;startArrow=classic;startFill=1;" edge="1" parent="yP9o1ustINh5DsTf5xkj-115" source="yP9o1ustINh5DsTf5xkj-252" target="yP9o1ustINh5DsTf5xkj-128">
          <mxGeometry relative="1" as="geometry" />
        </mxCell>
        <mxCell id="yP9o1ustINh5DsTf5xkj-287" value="Parameters" style="edgeLabel;html=1;align=center;verticalAlign=middle;resizable=0;points=[];rotation=-90;" vertex="1" connectable="0" parent="yP9o1ustINh5DsTf5xkj-258">
          <mxGeometry x="0.9922" y="-9" relative="1" as="geometry">
            <mxPoint x="-19" y="23" as="offset" />
          </mxGeometry>
        </mxCell>
        <mxCell id="yP9o1ustINh5DsTf5xkj-451" value="Map" style="edgeLabel;html=1;align=center;verticalAlign=middle;resizable=0;points=[];" vertex="1" connectable="0" parent="yP9o1ustINh5DsTf5xkj-258">
          <mxGeometry x="-0.9727" relative="1" as="geometry">
            <mxPoint x="29" y="10" as="offset" />
          </mxGeometry>
        </mxCell>
        <mxCell id="yP9o1ustINh5DsTf5xkj-259" style="edgeStyle=orthogonalEdgeStyle;rounded=0;orthogonalLoop=1;jettySize=auto;html=1;exitX=0;exitY=0.5;exitDx=0;exitDy=0;entryX=1;entryY=0;entryDx=0;entryDy=0;dashed=1;curved=1;startArrow=classic;startFill=1;" edge="1" parent="yP9o1ustINh5DsTf5xkj-115" source="yP9o1ustINh5DsTf5xkj-248" target="yP9o1ustINh5DsTf5xkj-122">
          <mxGeometry relative="1" as="geometry" />
        </mxCell>
        <mxCell id="yP9o1ustINh5DsTf5xkj-288" value="Destinations" style="edgeLabel;html=1;align=center;verticalAlign=middle;resizable=0;points=[];rotation=-90;" vertex="1" connectable="0" parent="yP9o1ustINh5DsTf5xkj-259">
          <mxGeometry x="0.9301" y="4" relative="1" as="geometry">
            <mxPoint x="6" y="10" as="offset" />
          </mxGeometry>
        </mxCell>
        <mxCell id="yP9o1ustINh5DsTf5xkj-454" value="Paths" style="edgeLabel;html=1;align=center;verticalAlign=middle;resizable=0;points=[];" vertex="1" connectable="0" parent="yP9o1ustINh5DsTf5xkj-259">
          <mxGeometry x="-0.9172" y="-2" relative="1" as="geometry">
            <mxPoint x="-30" as="offset" />
          </mxGeometry>
        </mxCell>
        <mxCell id="yP9o1ustINh5DsTf5xkj-262" style="edgeStyle=orthogonalEdgeStyle;rounded=0;orthogonalLoop=1;jettySize=auto;html=1;exitX=0;exitY=0.25;exitDx=0;exitDy=0;entryX=0.25;entryY=0;entryDx=0;entryDy=0;dashed=1;startArrow=classic;startFill=1;curved=1;" edge="1" parent="yP9o1ustINh5DsTf5xkj-115" source="yP9o1ustINh5DsTf5xkj-246" target="yP9o1ustINh5DsTf5xkj-121">
          <mxGeometry relative="1" as="geometry" />
        </mxCell>
        <mxCell id="yP9o1ustINh5DsTf5xkj-452" value="Feedback" style="edgeLabel;html=1;align=center;verticalAlign=middle;resizable=0;points=[];rotation=0;" vertex="1" connectable="0" parent="yP9o1ustINh5DsTf5xkj-262">
          <mxGeometry x="0.9619" y="1" relative="1" as="geometry">
            <mxPoint y="19" as="offset" />
          </mxGeometry>
        </mxCell>
        <mxCell id="yP9o1ustINh5DsTf5xkj-453" value="Paths" style="edgeLabel;html=1;align=center;verticalAlign=middle;resizable=0;points=[];" vertex="1" connectable="0" parent="yP9o1ustINh5DsTf5xkj-262">
          <mxGeometry x="-0.9575" y="-5" relative="1" as="geometry">
            <mxPoint y="5" as="offset" />
          </mxGeometry>
        </mxCell>
        <mxCell id="yP9o1ustINh5DsTf5xkj-263" value="" style="endArrow=classic;html=1;rounded=0;dashed=1;edgeStyle=orthogonalEdgeStyle;curved=1;" edge="1" parent="yP9o1ustINh5DsTf5xkj-115">
          <mxGeometry width="50" height="50" relative="1" as="geometry">
            <mxPoint x="3340.0300000000007" y="100" as="sourcePoint" />
            <mxPoint x="3580.0300000000007" y="200" as="targetPoint" />
            <Array as="points">
              <mxPoint x="3340.0300000000007" y="160" />
              <mxPoint x="3580.0300000000007" y="160" />
            </Array>
          </mxGeometry>
        </mxCell>
        <mxCell id="yP9o1ustINh5DsTf5xkj-264" value="Data flow" style="edgeLabel;html=1;align=center;verticalAlign=middle;resizable=0;points=[];" vertex="1" connectable="0" parent="yP9o1ustINh5DsTf5xkj-263">
          <mxGeometry x="0.0952" y="-2" relative="1" as="geometry">
            <mxPoint x="-16" y="-2" as="offset" />
          </mxGeometry>
        </mxCell>
        <mxCell id="yP9o1ustINh5DsTf5xkj-265" value="" style="endArrow=classic;html=1;rounded=0;dashed=1;edgeStyle=orthogonalEdgeStyle;dashPattern=8 8;" edge="1" parent="yP9o1ustINh5DsTf5xkj-115">
          <mxGeometry width="50" height="50" relative="1" as="geometry">
            <mxPoint x="3340.0300000000007" y="180" as="sourcePoint" />
            <mxPoint x="3580.0300000000007" y="280" as="targetPoint" />
            <Array as="points">
              <mxPoint x="3340.0300000000007" y="230" />
              <mxPoint x="3580.0300000000007" y="230" />
            </Array>
          </mxGeometry>
        </mxCell>
        <mxCell id="yP9o1ustINh5DsTf5xkj-266" value="Windows transitions" style="edgeLabel;html=1;align=center;verticalAlign=middle;resizable=0;points=[];" vertex="1" connectable="0" parent="yP9o1ustINh5DsTf5xkj-265">
          <mxGeometry x="0.0952" y="-2" relative="1" as="geometry">
            <mxPoint x="-16" y="-2" as="offset" />
          </mxGeometry>
        </mxCell>
        <mxCell id="yP9o1ustINh5DsTf5xkj-235" style="edgeStyle=orthogonalEdgeStyle;rounded=0;orthogonalLoop=1;jettySize=auto;html=1;exitX=1;exitY=0.5;exitDx=0;exitDy=0;entryX=0;entryY=0.75;entryDx=0;entryDy=0;dashed=1;curved=1;" edge="1" parent="yP9o1ustINh5DsTf5xkj-115" source="yP9o1ustINh5DsTf5xkj-234" target="yP9o1ustINh5DsTf5xkj-216">
          <mxGeometry relative="1" as="geometry" />
        </mxCell>
        <mxCell id="yP9o1ustINh5DsTf5xkj-236" style="edgeStyle=orthogonalEdgeStyle;rounded=0;orthogonalLoop=1;jettySize=auto;html=1;exitX=0;exitY=0.75;exitDx=0;exitDy=0;entryX=1;entryY=0.25;entryDx=0;entryDy=0;dashed=1;curved=1;" edge="1" parent="yP9o1ustINh5DsTf5xkj-115" source="yP9o1ustINh5DsTf5xkj-217" target="yP9o1ustINh5DsTf5xkj-234">
          <mxGeometry relative="1" as="geometry" />
        </mxCell>
        <mxCell id="yP9o1ustINh5DsTf5xkj-237" style="edgeStyle=orthogonalEdgeStyle;rounded=0;orthogonalLoop=1;jettySize=auto;html=1;exitX=1;exitY=0.25;exitDx=0;exitDy=0;entryX=0;entryY=0.25;entryDx=0;entryDy=0;dashed=1;curved=1;startArrow=classic;startFill=1;" edge="1" parent="yP9o1ustINh5DsTf5xkj-115" source="yP9o1ustINh5DsTf5xkj-238" target="yP9o1ustINh5DsTf5xkj-230">
          <mxGeometry relative="1" as="geometry" />
        </mxCell>
        <mxCell id="yP9o1ustINh5DsTf5xkj-244" style="edgeStyle=orthogonalEdgeStyle;rounded=0;orthogonalLoop=1;jettySize=auto;html=1;exitX=0.25;exitY=0;exitDx=0;exitDy=0;entryX=1;entryY=0.75;entryDx=0;entryDy=0;dashed=1;curved=1;startArrow=classic;startFill=1;" edge="1" parent="yP9o1ustINh5DsTf5xkj-115" source="yP9o1ustINh5DsTf5xkj-223" target="yP9o1ustINh5DsTf5xkj-243">
          <mxGeometry relative="1" as="geometry" />
        </mxCell>
        <mxCell id="yP9o1ustINh5DsTf5xkj-247" value="" style="edgeStyle=orthogonalEdgeStyle;rounded=0;orthogonalLoop=1;jettySize=auto;html=1;exitX=0.75;exitY=0;exitDx=0;exitDy=0;entryX=1;entryY=0.75;entryDx=0;entryDy=0;dashed=1;curved=1;startArrow=classic;startFill=1;" edge="1" parent="yP9o1ustINh5DsTf5xkj-115" source="yP9o1ustINh5DsTf5xkj-225" target="yP9o1ustINh5DsTf5xkj-246">
          <mxGeometry relative="1" as="geometry">
            <mxPoint x="7117" y="1583" as="sourcePoint" />
            <mxPoint x="8065" y="2160" as="targetPoint" />
          </mxGeometry>
        </mxCell>
        <mxCell id="yP9o1ustINh5DsTf5xkj-251" style="edgeStyle=orthogonalEdgeStyle;rounded=0;orthogonalLoop=1;jettySize=auto;html=1;exitX=1;exitY=0.25;exitDx=0;exitDy=0;entryX=1;entryY=0.75;entryDx=0;entryDy=0;startArrow=classic;startFill=1;dashed=1;curved=1;" edge="1" parent="yP9o1ustINh5DsTf5xkj-115" source="yP9o1ustINh5DsTf5xkj-227" target="yP9o1ustINh5DsTf5xkj-248">
          <mxGeometry relative="1" as="geometry" />
        </mxCell>
        <mxCell id="yP9o1ustINh5DsTf5xkj-250" style="edgeStyle=orthogonalEdgeStyle;rounded=0;orthogonalLoop=1;jettySize=auto;html=1;exitX=0.25;exitY=1;exitDx=0;exitDy=0;entryX=1;entryY=0.75;entryDx=0;entryDy=0;dashed=1;curved=1;" edge="1" parent="yP9o1ustINh5DsTf5xkj-115" source="yP9o1ustINh5DsTf5xkj-228" target="yP9o1ustINh5DsTf5xkj-249">
          <mxGeometry relative="1" as="geometry" />
        </mxCell>
        <mxCell id="yP9o1ustINh5DsTf5xkj-254" style="edgeStyle=orthogonalEdgeStyle;rounded=0;orthogonalLoop=1;jettySize=auto;html=1;exitX=0.75;exitY=1;exitDx=0;exitDy=0;entryX=1;entryY=0.5;entryDx=0;entryDy=0;dashed=1;curved=1;startArrow=classic;startFill=1;" edge="1" parent="yP9o1ustINh5DsTf5xkj-115" source="yP9o1ustINh5DsTf5xkj-233" target="yP9o1ustINh5DsTf5xkj-252">
          <mxGeometry relative="1" as="geometry" />
        </mxCell>
        <mxCell id="yP9o1ustINh5DsTf5xkj-216" value="&lt;div style=&quot;&quot;&gt;&lt;font color=&quot;#cc0000&quot;&gt;&lt;font style=&quot;font-size: 50px;&quot;&gt;Vi&lt;/font&gt;&lt;font style=&quot;font-size: 40px;&quot;&gt;ew&lt;/font&gt;&lt;/font&gt;&lt;/div&gt;" style="swimlane;whiteSpace=wrap;html=1;startSize=80;" vertex="1" parent="yP9o1ustINh5DsTf5xkj-115">
          <mxGeometry x="5440" y="1320" width="1390" height="1170" as="geometry" />
        </mxCell>
        <mxCell id="yP9o1ustINh5DsTf5xkj-217" value="&lt;div style=&quot;font-size: 13px;&quot;&gt;&lt;font style=&quot;font-size: 20px;&quot;&gt;Settings win&lt;/font&gt;&lt;/div&gt;" style="swimlane;whiteSpace=wrap;html=1;startSize=44;" vertex="1" parent="yP9o1ustINh5DsTf5xkj-216">
          <mxGeometry x="25" y="416" width="220" height="219" as="geometry" />
        </mxCell>
        <mxCell id="yP9o1ustINh5DsTf5xkj-218" style="edgeStyle=orthogonalEdgeStyle;rounded=0;orthogonalLoop=1;jettySize=auto;html=1;entryX=1;entryY=0.5;entryDx=0;entryDy=0;startArrow=classic;startFill=1;dashed=1;dashPattern=8 8;" edge="1" parent="yP9o1ustINh5DsTf5xkj-216" source="yP9o1ustINh5DsTf5xkj-221" target="yP9o1ustINh5DsTf5xkj-217">
          <mxGeometry relative="1" as="geometry" />
        </mxCell>
        <mxCell id="yP9o1ustINh5DsTf5xkj-219" style="edgeStyle=orthogonalEdgeStyle;rounded=0;orthogonalLoop=1;jettySize=auto;html=1;exitX=1;exitY=0.25;exitDx=0;exitDy=0;entryX=0;entryY=0.25;entryDx=0;entryDy=0;startArrow=classic;startFill=1;dashed=1;dashPattern=8 8;" edge="1" parent="yP9o1ustINh5DsTf5xkj-216" source="yP9o1ustINh5DsTf5xkj-221" target="yP9o1ustINh5DsTf5xkj-223">
          <mxGeometry relative="1" as="geometry" />
        </mxCell>
        <mxCell id="yP9o1ustINh5DsTf5xkj-220" style="edgeStyle=orthogonalEdgeStyle;rounded=0;orthogonalLoop=1;jettySize=auto;html=1;exitX=1;exitY=0.75;exitDx=0;exitDy=0;entryX=0;entryY=0.5;entryDx=0;entryDy=0;startArrow=classic;startFill=1;dashed=1;dashPattern=8 8;" edge="1" parent="yP9o1ustINh5DsTf5xkj-216" source="yP9o1ustINh5DsTf5xkj-221" target="yP9o1ustINh5DsTf5xkj-228">
          <mxGeometry relative="1" as="geometry" />
        </mxCell>
        <mxCell id="yP9o1ustINh5DsTf5xkj-221" value="&lt;div style=&quot;font-size: 13px;&quot;&gt;&lt;font style=&quot;font-size: 20px;&quot;&gt;Main win&lt;/font&gt;&lt;/div&gt;" style="swimlane;whiteSpace=wrap;html=1;startSize=44;" vertex="1" parent="yP9o1ustINh5DsTf5xkj-216">
          <mxGeometry x="270" y="416" width="290" height="219" as="geometry" />
        </mxCell>
        <mxCell id="yP9o1ustINh5DsTf5xkj-222" style="edgeStyle=orthogonalEdgeStyle;rounded=0;orthogonalLoop=1;jettySize=auto;html=1;exitX=1;exitY=0.5;exitDx=0;exitDy=0;entryX=0;entryY=0.5;entryDx=0;entryDy=0;startArrow=classic;startFill=1;dashed=1;dashPattern=8 8;" edge="1" parent="yP9o1ustINh5DsTf5xkj-216" source="yP9o1ustINh5DsTf5xkj-223" target="yP9o1ustINh5DsTf5xkj-225">
          <mxGeometry relative="1" as="geometry" />
        </mxCell>
        <mxCell id="yP9o1ustINh5DsTf5xkj-223" value="&lt;div style=&quot;font-size: 20px;&quot;&gt;&lt;font style=&quot;font-size: 20px;&quot;&gt;Path finding settings win&lt;/font&gt;&lt;/div&gt;" style="swimlane;whiteSpace=wrap;html=1;startSize=40;" vertex="1" parent="yP9o1ustINh5DsTf5xkj-216">
          <mxGeometry x="620" y="120" width="260" height="210" as="geometry" />
        </mxCell>
        <mxCell id="yP9o1ustINh5DsTf5xkj-224" style="edgeStyle=orthogonalEdgeStyle;rounded=0;orthogonalLoop=1;jettySize=auto;html=1;exitX=0.5;exitY=1;exitDx=0;exitDy=0;entryX=0.5;entryY=0;entryDx=0;entryDy=0;dashed=1;dashPattern=8 8;" edge="1" parent="yP9o1ustINh5DsTf5xkj-216" source="yP9o1ustINh5DsTf5xkj-225" target="yP9o1ustINh5DsTf5xkj-227">
          <mxGeometry relative="1" as="geometry" />
        </mxCell>
        <mxCell id="yP9o1ustINh5DsTf5xkj-225" value="&lt;div style=&quot;font-size: 20px;&quot;&gt;Relevance-feedback win&lt;/div&gt;" style="swimlane;whiteSpace=wrap;html=1;startSize=40;" vertex="1" parent="yP9o1ustINh5DsTf5xkj-216">
          <mxGeometry x="937" y="120" width="280" height="210" as="geometry" />
        </mxCell>
        <mxCell id="yP9o1ustINh5DsTf5xkj-226" style="edgeStyle=orthogonalEdgeStyle;rounded=0;orthogonalLoop=1;jettySize=auto;html=1;exitX=0;exitY=0.5;exitDx=0;exitDy=0;entryX=1;entryY=0.5;entryDx=0;entryDy=0;dashed=1;dashPattern=8 8;" edge="1" parent="yP9o1ustINh5DsTf5xkj-216" source="yP9o1ustINh5DsTf5xkj-227" target="yP9o1ustINh5DsTf5xkj-221">
          <mxGeometry relative="1" as="geometry" />
        </mxCell>
        <mxCell id="yP9o1ustINh5DsTf5xkj-227" value="&lt;div style=&quot;font-size: 13px;&quot;&gt;&lt;font style=&quot;font-size: 20px;&quot;&gt;Path-finding win&lt;/font&gt;&lt;/div&gt;" style="swimlane;whiteSpace=wrap;html=1;startSize=39;" vertex="1" parent="yP9o1ustINh5DsTf5xkj-216">
          <mxGeometry x="942" y="411" width="270" height="229" as="geometry" />
        </mxCell>
        <mxCell id="yP9o1ustINh5DsTf5xkj-228" value="&lt;div style=&quot;font-size: 20px;&quot;&gt;&lt;font style=&quot;font-size: 20px;&quot;&gt;Model-creating win&lt;/font&gt;&lt;/div&gt;" style="swimlane;whiteSpace=wrap;html=1;startSize=40;" vertex="1" parent="yP9o1ustINh5DsTf5xkj-216">
          <mxGeometry x="650" y="630" width="270" height="240" as="geometry" />
        </mxCell>
        <mxCell id="yP9o1ustINh5DsTf5xkj-229" style="edgeStyle=orthogonalEdgeStyle;rounded=0;orthogonalLoop=1;jettySize=auto;html=1;exitX=0.5;exitY=1;exitDx=0;exitDy=0;entryX=0.5;entryY=0;entryDx=0;entryDy=0;startArrow=classic;startFill=1;dashed=1;dashPattern=8 8;" edge="1" parent="yP9o1ustINh5DsTf5xkj-216" source="yP9o1ustINh5DsTf5xkj-230" target="yP9o1ustINh5DsTf5xkj-217">
          <mxGeometry relative="1" as="geometry" />
        </mxCell>
        <mxCell id="yP9o1ustINh5DsTf5xkj-230" value="&lt;div style=&quot;font-size: 20px;&quot;&gt;Elevation-data win&lt;/div&gt;" style="swimlane;whiteSpace=wrap;html=1;startSize=45;" vertex="1" parent="yP9o1ustINh5DsTf5xkj-216">
          <mxGeometry x="30" y="90" width="210" height="210" as="geometry" />
        </mxCell>
        <mxCell id="yP9o1ustINh5DsTf5xkj-231" style="edgeStyle=orthogonalEdgeStyle;rounded=0;orthogonalLoop=1;jettySize=auto;html=1;exitX=1;exitY=0.5;exitDx=0;exitDy=0;entryX=0;entryY=0.75;entryDx=0;entryDy=0;dashed=1;dashPattern=8 8;startArrow=classic;startFill=1;" edge="1" parent="yP9o1ustINh5DsTf5xkj-216" source="yP9o1ustINh5DsTf5xkj-233" target="yP9o1ustINh5DsTf5xkj-228">
          <mxGeometry relative="1" as="geometry" />
        </mxCell>
        <mxCell id="yP9o1ustINh5DsTf5xkj-233" value="&lt;div style=&quot;font-size: 20px;&quot;&gt;&lt;font style=&quot;font-size: 20px;&quot;&gt;Model-creating settings win&lt;/font&gt;&lt;/div&gt;" style="swimlane;whiteSpace=wrap;html=1;startSize=40;" vertex="1" parent="yP9o1ustINh5DsTf5xkj-216">
          <mxGeometry x="270" y="700" width="290" height="220" as="geometry" />
        </mxCell>
        <mxCell id="yP9o1ustINh5DsTf5xkj-272" style="edgeStyle=orthogonalEdgeStyle;rounded=0;orthogonalLoop=1;jettySize=auto;html=1;exitX=0.25;exitY=0;exitDx=0;exitDy=0;entryX=0.5;entryY=1;entryDx=0;entryDy=0;curved=1;startArrow=classic;startFill=1;dashed=1;" edge="1" parent="yP9o1ustINh5DsTf5xkj-115" source="yP9o1ustINh5DsTf5xkj-143" target="yP9o1ustINh5DsTf5xkj-124">
          <mxGeometry relative="1" as="geometry" />
        </mxCell>
        <mxCell id="yP9o1ustINh5DsTf5xkj-274" value="Map" style="edgeLabel;html=1;align=center;verticalAlign=middle;resizable=0;points=[];rotation=90;" vertex="1" connectable="0" parent="yP9o1ustINh5DsTf5xkj-272">
          <mxGeometry x="-0.9434" y="6" relative="1" as="geometry">
            <mxPoint x="23" as="offset" />
          </mxGeometry>
        </mxCell>
        <mxCell id="yP9o1ustINh5DsTf5xkj-275" value="query for downloading" style="edgeLabel;html=1;align=center;verticalAlign=middle;resizable=0;points=[];rotation=-90;" vertex="1" connectable="0" parent="yP9o1ustINh5DsTf5xkj-272">
          <mxGeometry x="0.9461" y="-2" relative="1" as="geometry">
            <mxPoint x="-17" y="31" as="offset" />
          </mxGeometry>
        </mxCell>
        <mxCell id="yP9o1ustINh5DsTf5xkj-281" style="edgeStyle=orthogonalEdgeStyle;rounded=0;orthogonalLoop=1;jettySize=auto;html=1;exitX=0;exitY=0.25;exitDx=0;exitDy=0;entryX=1;entryY=0.25;entryDx=0;entryDy=0;curved=1;startArrow=none;startFill=0;dashed=1;" edge="1" parent="yP9o1ustINh5DsTf5xkj-115" source="yP9o1ustINh5DsTf5xkj-217" target="yP9o1ustINh5DsTf5xkj-276">
          <mxGeometry relative="1" as="geometry" />
        </mxCell>
        <mxCell id="yP9o1ustINh5DsTf5xkj-461" value="Params" style="edgeLabel;html=1;align=center;verticalAlign=middle;resizable=0;points=[];" vertex="1" connectable="0" parent="yP9o1ustINh5DsTf5xkj-281">
          <mxGeometry x="0.893" y="2" relative="1" as="geometry">
            <mxPoint as="offset" />
          </mxGeometry>
        </mxCell>
        <mxCell id="yP9o1ustINh5DsTf5xkj-282" value="&lt;font style=&quot;&quot;&gt;&lt;font style=&quot;font-size: 40px;&quot;&gt;Windows ViewModels&lt;/font&gt;&lt;br&gt;&lt;/font&gt;" style="swimlane;whiteSpace=wrap;html=1;startSize=60;" vertex="1" parent="yP9o1ustINh5DsTf5xkj-115">
          <mxGeometry x="4360" y="130" width="600" height="3130" as="geometry" />
        </mxCell>
        <mxCell id="yP9o1ustINh5DsTf5xkj-475" style="edgeStyle=orthogonalEdgeStyle;rounded=0;orthogonalLoop=1;jettySize=auto;html=1;exitX=0.25;exitY=1;exitDx=0;exitDy=0;entryX=0.25;entryY=0;entryDx=0;entryDy=0;dashed=1;curved=1;" edge="1" parent="yP9o1ustINh5DsTf5xkj-282" source="yP9o1ustINh5DsTf5xkj-243" target="yP9o1ustINh5DsTf5xkj-246">
          <mxGeometry relative="1" as="geometry" />
        </mxCell>
        <mxCell id="yP9o1ustINh5DsTf5xkj-476" value="Map" style="edgeLabel;html=1;align=center;verticalAlign=middle;resizable=0;points=[];" vertex="1" connectable="0" parent="yP9o1ustINh5DsTf5xkj-475">
          <mxGeometry x="0.1333" y="-2" relative="1" as="geometry">
            <mxPoint y="-7" as="offset" />
          </mxGeometry>
        </mxCell>
        <mxCell id="yP9o1ustINh5DsTf5xkj-243" value="&lt;font style=&quot;&quot;&gt;&lt;font style=&quot;font-size: 30px;&quot;&gt;Path finding session parameter setting&lt;/font&gt;&lt;br&gt;&lt;/font&gt;" style="swimlane;whiteSpace=wrap;html=1;startSize=80;" vertex="1" parent="yP9o1ustINh5DsTf5xkj-282">
          <mxGeometry x="80" y="110" width="440" height="240" as="geometry" />
        </mxCell>
        <mxCell id="yP9o1ustINh5DsTf5xkj-477" style="edgeStyle=orthogonalEdgeStyle;rounded=0;orthogonalLoop=1;jettySize=auto;html=1;exitX=0.25;exitY=1;exitDx=0;exitDy=0;entryX=0.25;entryY=0;entryDx=0;entryDy=0;dashed=1;curved=1;" edge="1" parent="yP9o1ustINh5DsTf5xkj-282" source="yP9o1ustINh5DsTf5xkj-246" target="yP9o1ustINh5DsTf5xkj-248">
          <mxGeometry relative="1" as="geometry" />
        </mxCell>
        <mxCell id="yP9o1ustINh5DsTf5xkj-478" value="Map" style="edgeLabel;html=1;align=center;verticalAlign=middle;resizable=0;points=[];" vertex="1" connectable="0" parent="yP9o1ustINh5DsTf5xkj-477">
          <mxGeometry x="-0.475" y="-2" relative="1" as="geometry">
            <mxPoint y="2" as="offset" />
          </mxGeometry>
        </mxCell>
        <mxCell id="yP9o1ustINh5DsTf5xkj-246" value="&lt;font style=&quot;&quot;&gt;&lt;font style=&quot;font-size: 30px;&quot;&gt;Relevance feedback controller&lt;/font&gt;&lt;br&gt;&lt;/font&gt;" style="swimlane;whiteSpace=wrap;html=1;startSize=49;" vertex="1" parent="yP9o1ustINh5DsTf5xkj-282">
          <mxGeometry x="80" y="380" width="440" height="240" as="geometry" />
        </mxCell>
        <mxCell id="yP9o1ustINh5DsTf5xkj-248" value="&lt;font style=&quot;&quot;&gt;&lt;font style=&quot;font-size: 30px;&quot;&gt;Path finding manager&lt;/font&gt;&lt;br&gt;&lt;/font&gt;" style="swimlane;whiteSpace=wrap;html=1;startSize=50;" vertex="1" parent="yP9o1ustINh5DsTf5xkj-282">
          <mxGeometry x="80" y="650" width="440" height="230" as="geometry" />
        </mxCell>
        <mxCell id="yP9o1ustINh5DsTf5xkj-234" value="&lt;font style=&quot;&quot;&gt;&lt;font style=&quot;font-size: 30px;&quot;&gt;Localization&lt;/font&gt;&lt;br&gt;&lt;/font&gt;" style="swimlane;whiteSpace=wrap;html=1;startSize=50;" vertex="1" parent="yP9o1ustINh5DsTf5xkj-282">
          <mxGeometry x="80" y="1830" width="440" height="240" as="geometry" />
        </mxCell>
        <mxCell id="yP9o1ustINh5DsTf5xkj-238" value="&lt;font style=&quot;&quot;&gt;&lt;span style=&quot;font-size: 30px;&quot;&gt;Elevation data setting&lt;/span&gt;&lt;br&gt;&lt;/font&gt;" style="swimlane;whiteSpace=wrap;html=1;startSize=50;" vertex="1" parent="yP9o1ustINh5DsTf5xkj-282">
          <mxGeometry x="80" y="1150" width="440" height="240" as="geometry" />
        </mxCell>
        <mxCell id="yP9o1ustINh5DsTf5xkj-249" value="&lt;font style=&quot;&quot;&gt;&lt;span style=&quot;font-size: 30px;&quot;&gt;User model instance creating manager&lt;/span&gt;&lt;br&gt;&lt;/font&gt;" style="swimlane;whiteSpace=wrap;html=1;startSize=80;" vertex="1" parent="yP9o1ustINh5DsTf5xkj-282">
          <mxGeometry x="80" y="2520" width="440" height="240" as="geometry" />
        </mxCell>
        <mxCell id="yP9o1ustINh5DsTf5xkj-479" style="edgeStyle=orthogonalEdgeStyle;rounded=0;orthogonalLoop=1;jettySize=auto;html=1;exitX=0.25;exitY=0;exitDx=0;exitDy=0;entryX=0.25;entryY=1;entryDx=0;entryDy=0;dashed=1;curved=1;" edge="1" parent="yP9o1ustINh5DsTf5xkj-282" source="yP9o1ustINh5DsTf5xkj-252" target="yP9o1ustINh5DsTf5xkj-249">
          <mxGeometry relative="1" as="geometry" />
        </mxCell>
        <mxCell id="yP9o1ustINh5DsTf5xkj-480" value="Map" style="edgeLabel;html=1;align=center;verticalAlign=middle;resizable=0;points=[];" vertex="1" connectable="0" parent="yP9o1ustINh5DsTf5xkj-479">
          <mxGeometry x="-0.2667" y="1" relative="1" as="geometry">
            <mxPoint as="offset" />
          </mxGeometry>
        </mxCell>
        <mxCell id="yP9o1ustINh5DsTf5xkj-252" value="&lt;font style=&quot;&quot;&gt;&lt;span style=&quot;font-size: 30px;&quot;&gt;User model instance creating session parameter setting&lt;/span&gt;&lt;br&gt;&lt;/font&gt;" style="swimlane;whiteSpace=wrap;html=1;startSize=80;" vertex="1" parent="yP9o1ustINh5DsTf5xkj-282">
          <mxGeometry x="80" y="2790" width="440" height="240" as="geometry" />
        </mxCell>
        <mxCell id="yP9o1ustINh5DsTf5xkj-279" style="edgeStyle=orthogonalEdgeStyle;rounded=0;orthogonalLoop=1;jettySize=auto;html=1;exitX=1;exitY=0.75;exitDx=0;exitDy=0;entryX=1;entryY=0.5;entryDx=0;entryDy=0;dashed=1;startArrow=none;startFill=0;curved=1;" edge="1" parent="yP9o1ustINh5DsTf5xkj-282" source="yP9o1ustINh5DsTf5xkj-276" target="yP9o1ustINh5DsTf5xkj-249">
          <mxGeometry relative="1" as="geometry" />
        </mxCell>
        <mxCell id="yP9o1ustINh5DsTf5xkj-465" value="Initial params" style="edgeLabel;html=1;align=center;verticalAlign=middle;resizable=0;points=[];" vertex="1" connectable="0" parent="yP9o1ustINh5DsTf5xkj-279">
          <mxGeometry x="0.8616" y="-7" relative="1" as="geometry">
            <mxPoint x="17" as="offset" />
          </mxGeometry>
        </mxCell>
        <mxCell id="yP9o1ustINh5DsTf5xkj-280" style="edgeStyle=orthogonalEdgeStyle;rounded=0;orthogonalLoop=1;jettySize=auto;html=1;exitX=0;exitY=0.75;exitDx=0;exitDy=0;entryX=0;entryY=0.25;entryDx=0;entryDy=0;dashed=1;curved=1;startArrow=classic;startFill=1;" edge="1" parent="yP9o1ustINh5DsTf5xkj-282" source="yP9o1ustINh5DsTf5xkj-276" target="yP9o1ustINh5DsTf5xkj-252">
          <mxGeometry relative="1" as="geometry" />
        </mxCell>
        <mxCell id="yP9o1ustINh5DsTf5xkj-459" value="Params" style="edgeLabel;html=1;align=center;verticalAlign=middle;resizable=0;points=[];" vertex="1" connectable="0" parent="yP9o1ustINh5DsTf5xkj-280">
          <mxGeometry x="-0.8989" y="6" relative="1" as="geometry">
            <mxPoint as="offset" />
          </mxGeometry>
        </mxCell>
        <mxCell id="yP9o1ustINh5DsTf5xkj-460" value="Initial params" style="edgeLabel;html=1;align=center;verticalAlign=middle;resizable=0;points=[];" vertex="1" connectable="0" parent="yP9o1ustINh5DsTf5xkj-280">
          <mxGeometry x="0.8725" y="3" relative="1" as="geometry">
            <mxPoint x="-13" y="8" as="offset" />
          </mxGeometry>
        </mxCell>
        <mxCell id="yP9o1ustINh5DsTf5xkj-276" value="&lt;font style=&quot;&quot;&gt;&lt;font style=&quot;font-size: 30px;&quot;&gt;Parameter manager&lt;/font&gt;&lt;br&gt;&lt;/font&gt;" style="swimlane;whiteSpace=wrap;html=1;startSize=50;" vertex="1" parent="yP9o1ustINh5DsTf5xkj-282">
          <mxGeometry x="80" y="1560" width="440" height="240" as="geometry" />
        </mxCell>
        <mxCell id="yP9o1ustINh5DsTf5xkj-277" style="edgeStyle=orthogonalEdgeStyle;rounded=0;orthogonalLoop=1;jettySize=auto;html=1;exitX=0;exitY=0.75;exitDx=0;exitDy=0;entryX=0;entryY=0.25;entryDx=0;entryDy=0;dashed=1;curved=1;startArrow=classic;startFill=1;" edge="1" parent="yP9o1ustINh5DsTf5xkj-282" source="yP9o1ustINh5DsTf5xkj-243" target="yP9o1ustINh5DsTf5xkj-276">
          <mxGeometry relative="1" as="geometry" />
        </mxCell>
        <mxCell id="yP9o1ustINh5DsTf5xkj-457" value="Initial params" style="edgeLabel;html=1;align=center;verticalAlign=middle;resizable=0;points=[];" vertex="1" connectable="0" parent="yP9o1ustINh5DsTf5xkj-277">
          <mxGeometry x="-0.8846" y="5" relative="1" as="geometry">
            <mxPoint y="-38" as="offset" />
          </mxGeometry>
        </mxCell>
        <mxCell id="yP9o1ustINh5DsTf5xkj-458" value="Params" style="edgeLabel;html=1;align=center;verticalAlign=middle;resizable=0;points=[];" vertex="1" connectable="0" parent="yP9o1ustINh5DsTf5xkj-277">
          <mxGeometry x="0.8722" y="8" relative="1" as="geometry">
            <mxPoint as="offset" />
          </mxGeometry>
        </mxCell>
        <mxCell id="yP9o1ustINh5DsTf5xkj-283" style="edgeStyle=orthogonalEdgeStyle;rounded=0;orthogonalLoop=1;jettySize=auto;html=1;exitX=0;exitY=0.5;exitDx=0;exitDy=0;entryX=0.75;entryY=1;entryDx=0;entryDy=0;dashed=1;curved=1;startArrow=classic;startFill=1;" edge="1" parent="yP9o1ustINh5DsTf5xkj-115" source="yP9o1ustINh5DsTf5xkj-249" target="yP9o1ustINh5DsTf5xkj-131">
          <mxGeometry relative="1" as="geometry" />
        </mxCell>
        <mxCell id="yP9o1ustINh5DsTf5xkj-284" value="Attributes" style="edgeLabel;html=1;align=center;verticalAlign=middle;resizable=0;points=[];rotation=-90;" vertex="1" connectable="0" parent="yP9o1ustINh5DsTf5xkj-283">
          <mxGeometry x="0.9678" y="-4" relative="1" as="geometry">
            <mxPoint x="-19" y="-1" as="offset" />
          </mxGeometry>
        </mxCell>
        <mxCell id="yP9o1ustINh5DsTf5xkj-286" value="Path" style="edgeLabel;html=1;align=center;verticalAlign=middle;resizable=0;points=[];" vertex="1" connectable="0" parent="yP9o1ustINh5DsTf5xkj-283">
          <mxGeometry x="-0.9102" y="1" relative="1" as="geometry">
            <mxPoint x="62" y="-11" as="offset" />
          </mxGeometry>
        </mxCell>
        <mxCell id="yP9o1ustINh5DsTf5xkj-462" style="edgeStyle=orthogonalEdgeStyle;rounded=0;orthogonalLoop=1;jettySize=auto;html=1;exitX=0.25;exitY=1;exitDx=0;exitDy=0;entryX=0.5;entryY=0;entryDx=0;entryDy=0;curved=1;startArrow=classic;startFill=1;dashed=1;" edge="1" parent="yP9o1ustINh5DsTf5xkj-115" source="yP9o1ustINh5DsTf5xkj-143" target="yP9o1ustINh5DsTf5xkj-128">
          <mxGeometry relative="1" as="geometry">
            <mxPoint x="1258" y="2420" as="sourcePoint" />
            <mxPoint x="580" y="2050" as="targetPoint" />
          </mxGeometry>
        </mxCell>
        <mxCell id="yP9o1ustINh5DsTf5xkj-463" value="Map" style="edgeLabel;html=1;align=center;verticalAlign=middle;resizable=0;points=[];rotation=90;" vertex="1" connectable="0" parent="yP9o1ustINh5DsTf5xkj-462">
          <mxGeometry x="-0.9434" y="6" relative="1" as="geometry">
            <mxPoint x="23" as="offset" />
          </mxGeometry>
        </mxCell>
        <mxCell id="yP9o1ustINh5DsTf5xkj-464" value="query for downloading" style="edgeLabel;html=1;align=center;verticalAlign=middle;resizable=0;points=[];rotation=90;" vertex="1" connectable="0" parent="yP9o1ustINh5DsTf5xkj-462">
          <mxGeometry x="0.9461" y="-2" relative="1" as="geometry">
            <mxPoint x="27" y="-30" as="offset" />
          </mxGeometry>
        </mxCell>
        <mxCell id="yP9o1ustINh5DsTf5xkj-466" style="edgeStyle=orthogonalEdgeStyle;rounded=0;orthogonalLoop=1;jettySize=auto;html=1;exitX=0;exitY=0.75;exitDx=0;exitDy=0;entryX=0.25;entryY=1;entryDx=0;entryDy=0;dashed=1;curved=1;" edge="1" parent="yP9o1ustINh5DsTf5xkj-115" source="yP9o1ustINh5DsTf5xkj-249" target="yP9o1ustINh5DsTf5xkj-128">
          <mxGeometry relative="1" as="geometry" />
        </mxCell>
        <mxCell id="yP9o1ustINh5DsTf5xkj-467" value="Initial params" style="edgeLabel;html=1;align=center;verticalAlign=middle;resizable=0;points=[];" vertex="1" connectable="0" parent="yP9o1ustINh5DsTf5xkj-466">
          <mxGeometry x="0.9869" y="-27" relative="1" as="geometry">
            <mxPoint as="offset" />
          </mxGeometry>
        </mxCell>
      </root>
    </mxGraphModel>
  </diagram>
</mxfile>
